<svg preserveAspectRatio="none" width="100%" height="100%" overflow="visible" style="display: block;" viewBox="0 0 16.9016 16.4205" fill="none" xmlns="http://www.w3.org/2000/svg">
<g id="Group">
<g id="Group_2">
<path id="Vector" d="M16.3776 0.080342V15.2358C16.3776 15.8456 15.7459 16.3402 14.9663 16.3402H1.93731C1.15768 16.3402 0.524659 15.8456 0.524659 15.2358V0.080342H16.3776Z" fill="var(--fill-0, #82B0AB)" stroke="var(--stroke-0, #054742)" stroke-width="0.160682" stroke-linecap="round" stroke-linejoin="round"/>
<path id="Vector_2" d="M2.25117 0.080342H8.64988C8.61973 0.166663 8.58 0.251618 8.51697 0.324237C8.3046 0.568128 7.87984 0.629788 7.50304 0.625677C7.40576 0.625677 7.30985 0.620194 7.21805 0.640747C6.86317 0.720217 6.55352 1.2217 6.56859 1.48614C6.58092 1.69578 6.64805 1.90952 6.57269 2.10957C6.50693 2.27947 6.34251 2.41375 6.21508 2.55899C5.52451 3.3441 5.75333 4.51286 5.86295 5.4021C5.8972 5.67477 5.93008 5.95976 5.79444 6.21324C5.65879 6.46399 5.29432 6.66403 4.96274 6.58045C4.71337 6.51605 4.5558 6.31052 4.51743 6.10774C4.4777 5.90221 4.53388 5.69532 4.57909 5.49116C4.86272 4.18675 4.73392 2.85221 4.6065 1.53273C4.5928 1.40668 4.57635 1.27103 4.47633 1.17238C4.23244 0.931225 3.5679 1.02165 3.0212 0.99014C2.66633 0.957256 2.34433 0.896964 2.22787 0.601007C2.15662 0.421514 2.25802 0.258465 2.25254 0.080342H2.25117Z" fill="var(--fill-0, white)" stroke="var(--stroke-0, #054742)" stroke-width="0.160682" stroke-linecap="round" stroke-linejoin="round"/>
<path id="Vector_3" d="M15.8189 0.080342C15.7915 0.132409 15.7655 0.18722 15.7381 0.239287C15.5312 0.665411 15.1325 1.02713 14.5337 1.11482C14.3981 1.134 14.2542 1.14086 14.1364 1.19567C13.9623 1.27514 13.8842 1.43682 13.8007 1.57931C13.6568 1.8232 13.3869 1.88623 13.1512 2.05887C13.0909 2.10135 13.0334 2.14657 13.0005 2.20411C12.9388 2.30139 12.9498 2.41512 12.9649 2.52611C12.9909 2.733 13.0169 2.94264 13.0457 3.14954C13.0662 3.31396 13.0868 3.48249 13.0402 3.6428C12.9936 3.80311 12.8648 3.95931 12.6689 4.01959C12.399 4.10317 12.0784 3.97575 11.9249 3.78256C11.7687 3.58936 11.7427 3.34958 11.7468 3.1235C11.7509 2.94949 11.7673 2.77822 11.7975 2.60832C11.8495 2.32743 11.9413 2.04655 11.9057 1.76292C11.8715 1.49163 11.6577 1.31076 11.5604 1.05591C11.4769 0.829827 11.4631 0.580454 11.2508 0.39548C11.148 0.307789 11.0124 0.248876 10.889 0.177627C10.837 0.148854 10.789 0.115968 10.7424 0.0817135H15.8203L15.8189 0.080342Z" fill="var(--fill-0, white)" stroke="var(--stroke-0, #054742)" stroke-width="0.160682" stroke-linecap="round" stroke-linejoin="round"/>
</g>
<path id="Vector_4" d="M16.3553 13.4577H0.546273C0.394184 13.4577 0.0845211 13.4988 0.0804106 13.6591C0.0749299 13.8166 0.409256 13.8591 0.546273 13.8591H16.3553C16.5074 13.8591 16.8171 13.818 16.8212 13.6591C16.8267 13.5015 16.4924 13.4577 16.3553 13.4577Z" fill="var(--fill-0, #054742)" stroke="var(--stroke-0, #054742)" stroke-width="0.160682" stroke-linecap="round" stroke-linejoin="round"/>
<path id="Vector_5" d="M16.3553 12.1433H0.546273C0.394184 12.1433 0.0845211 12.1844 0.0804106 12.3447C0.0749299 12.5023 0.409256 12.5461 0.546273 12.5461H16.3553C16.5074 12.5461 16.8171 12.505 16.8212 12.3447C16.8267 12.1858 16.4924 12.1433 16.3553 12.1433Z" fill="var(--fill-0, #054742)" stroke="var(--stroke-0, #054742)" stroke-width="0.160682" stroke-linecap="round" stroke-linejoin="round"/>
</g>
</svg>
