<svg preserveAspectRatio="none" width="100%" height="100%" overflow="visible" style="display: block;" viewBox="0 0 60.8849 9.36688" fill="none" xmlns="http://www.w3.org/2000/svg">
<g id="Group">
<path id="Vector" d="M1.69124 6.37468C1.82134 7.54554 2.60191 7.93583 3.64267 7.93583C4.68344 7.93583 5.46401 7.54554 5.46401 6.76497C5.46401 5.9844 4.55334 5.72421 3.51258 5.46401L2.732 5.20382C1.17086 4.81354 0.130094 4.16306 0.130094 2.60191C0.130094 0.910669 1.69124 0 3.51258 0C5.33392 0 6.89506 0.780574 6.89506 2.73201H5.20382C5.07373 1.82134 4.42325 1.43105 3.38248 1.43105C2.34172 1.43105 1.82134 1.82134 1.82134 2.47182C1.82134 3.12229 2.21162 3.38248 3.64267 3.77277L4.68344 4.03296C5.46401 4.16306 7.28535 4.68344 7.28535 6.50478C7.28535 8.19602 5.98439 9.36688 3.64267 9.36688C1.56115 9.36688 0.130096 8.45621 0 6.50478H1.69124V6.37468Z" fill="var(--fill-0, #054742)"/>
<path id="Vector_2" d="M14.5704 5.07386H10.2772V7.67577H15.2209V9.10682H8.58598V0.260325H15.2209V1.69138H10.4073V3.77291H14.7005V5.07386H14.5704Z" fill="var(--fill-0, #054742)"/>
<path id="Vector_3" d="M24.0684 6.2446C23.6781 8.06594 22.247 9.2368 20.2956 9.2368C17.6937 9.2368 16.1325 7.28537 16.1325 4.68346C16.1325 2.08155 17.6937 1.60363e-05 20.2956 1.60363e-05C22.247 1.60363e-05 23.6781 1.17088 24.0684 3.12231H22.3771C22.247 2.21164 21.4665 1.43107 20.2956 1.43107C18.7344 1.43107 17.9539 2.73202 17.9539 4.68346C17.9539 6.63489 18.8645 7.80575 20.2956 7.80575C21.3364 7.80575 22.1169 7.15527 22.3771 6.2446H24.0684Z" fill="var(--fill-0, #054742)"/>
<path id="Vector_4" d="M30.4429 6.76501C30.573 6.50482 30.573 6.11453 30.573 5.72424V0.130136H32.3944V5.72424C32.3944 6.37472 32.3944 6.76501 32.2643 7.28539C31.874 8.71644 30.573 9.23682 28.8818 9.23682C27.1905 9.23682 26.0197 8.71644 25.4993 7.28539C25.3692 6.8951 25.3692 6.37472 25.3692 5.72424V0.130136H27.1905V5.72424C27.1905 6.11453 27.1905 6.37472 27.3206 6.76501C27.4507 7.41549 27.9711 7.80577 29.0119 7.80577C29.7925 7.80577 30.1827 7.41549 30.4429 6.76501Z" fill="var(--fill-0, #054742)"/>
<path id="Vector_5" d="M34.0853 0.130136H37.9881C38.6386 0.130136 39.0289 0.130135 39.2891 0.260231C40.4599 0.520422 41.1104 1.43109 41.1104 2.60195C41.1104 4.033 40.1997 4.55339 39.4192 4.81358C39.8095 4.81358 40.1997 5.07377 40.4599 5.33396C40.7201 5.59415 40.8502 5.98444 40.9803 6.76501V7.1553C40.9803 7.80577 41.1104 8.71644 41.2405 8.97663H39.4192C39.2891 8.45625 39.2891 7.54558 39.159 6.8951C39.0289 6.24463 38.8988 5.72424 38.3784 5.59415C38.1182 5.46405 37.858 5.46405 37.4677 5.46405H36.0367V8.97663H34.2154V0.130136H34.0853ZM35.7765 4.1631H37.4677C37.7279 4.1631 37.9881 4.1631 38.2483 4.033C38.8988 3.90291 39.2891 3.38253 39.2891 2.73205C39.2891 2.08157 38.8988 1.69128 38.2483 1.56119C38.1182 1.56119 37.858 1.43109 37.4677 1.43109H35.7765V4.1631Z" fill="var(--fill-0, #054742)"/>
<path id="Vector_6" d="M44.3632 9.10682H42.5419V0.260325H44.3632V9.10682Z" fill="var(--fill-0, #054742)"/>
<path id="Vector_7" d="M49.8266 1.56119V9.10673H48.0053V1.56119H45.2733V0.130136H52.4285V1.56119H49.8266Z" fill="var(--fill-0, #054742)"/>
<path id="Vector_8" d="M57.8927 5.72434V9.10682H56.0714V5.72434L53.2093 0.260325H55.1607L56.9821 4.16319L58.9335 0.260325H60.8849L57.8927 5.72434Z" fill="var(--fill-0, #054742)"/>
</g>
</svg>
