<svg preserveAspectRatio="none" width="100%" height="100%" overflow="visible" style="display: block;" viewBox="0 0 16.5725 16.825" fill="none" xmlns="http://www.w3.org/2000/svg">
<path id="Vector" d="M8.7025 5.15833H7.4525V10.1583L11.4108 12.5333L12.0358 11.5083L8.7025 9.53333V5.15833ZM12.7333 0L16.5725 3.20417L15.5058 4.48333L11.6642 1.28083L12.7333 0ZM3.83833 0L4.90667 1.28L1.06667 4.48333L0 3.20333L3.83833 0ZM8.28583 1.825C4.14417 1.825 0.785833 5.18333 0.785833 9.325C0.785833 13.4667 4.14417 16.825 8.28583 16.825C12.4275 16.825 15.7858 13.4667 15.7858 9.325C15.7858 5.18333 12.4275 1.825 8.28583 1.825ZM8.28583 15.1583C5.06917 15.1583 2.4525 12.5417 2.4525 9.325C2.4525 6.10833 5.06917 3.49167 8.28583 3.49167C11.5025 3.49167 14.1192 6.10833 14.1192 9.325C14.1192 12.5417 11.5025 15.1583 8.28583 15.1583Z" fill="var(--fill-0, #525252)"/>
</svg>
