<svg preserveAspectRatio="none" width="100%" height="100%" overflow="visible" style="display: block;" viewBox="0 0 40.1583 25.4361" fill="none" xmlns="http://www.w3.org/2000/svg">
<g id="Group">
<g id="Vector">
<path d="M1.38916 11.7929C1.68374 11.4614 2.15644 11.2956 2.59353 11.3696C3.03198 11.4449 3.42112 11.7573 3.58965 12.1684C2.85661 12.1738 2.1222 12.0656 1.42204 11.8491" fill="var(--fill-0, #82B0AB)"/>
<path d="M1.38916 11.7929C1.68374 11.4614 2.15644 11.2956 2.59353 11.3696C3.03198 11.4449 3.42112 11.7573 3.58965 12.1684C2.85661 12.1738 2.1222 12.0656 1.42204 11.8491" stroke="var(--stroke-0, #054742)" stroke-width="0.160682" stroke-linecap="round" stroke-linejoin="round"/>
</g>
<g id="Vector_2">
<path d="M4.8273 12.4022C5.12188 12.0706 5.5946 11.9048 6.03168 11.9788C6.47014 12.0542 6.85926 12.3666 7.02779 12.7776C6.29474 12.7831 5.56034 12.6749 4.86018 12.4584" fill="var(--fill-0, white)"/>
<path d="M4.8273 12.4022C5.12188 12.0706 5.5946 11.9048 6.03168 11.9788C6.47014 12.0542 6.85926 12.3666 7.02779 12.7776C6.29474 12.7831 5.56034 12.6749 4.86018 12.4584" stroke="var(--stroke-0, #054742)" stroke-width="0.160682" stroke-linecap="round" stroke-linejoin="round"/>
</g>
<g id="Vector_3">
<path d="M8.32643 12.9919C8.62102 12.659 9.09372 12.4946 9.53081 12.5685C9.96926 12.6439 10.3584 12.9563 10.5269 13.3674C9.79388 13.3728 9.05948 13.2646 8.35932 13.0481" fill="var(--fill-0, #DBECE4)"/>
<path d="M8.32643 12.9919C8.62102 12.659 9.09372 12.4946 9.53081 12.5685C9.96926 12.6439 10.3584 12.9563 10.5269 13.3674C9.79388 13.3728 9.05948 13.2646 8.35932 13.0481" stroke="var(--stroke-0, #054742)" stroke-width="0.160682" stroke-linecap="round" stroke-linejoin="round"/>
</g>
<path id="Vector_4" d="M7.18195 13.494L0.0803412 12.3636L0.517436 11.6196L13.8177 13.7941L13.334 14.5518L7.18195 13.494Z" fill="var(--fill-0, #054742)" stroke="var(--stroke-0, #054742)" stroke-width="0.160682" stroke-linecap="round" stroke-linejoin="round"/>
<path id="Vector_5" d="M16.0681 12.0896C16.0681 12.0896 15.0678 11.3237 14.6568 11.3689C14.2457 11.4141 11.4177 12.5979 11.4177 12.5979C11.4177 12.5979 9.68714 13.1323 9.7214 13.4378C9.76113 13.79 10.1996 14.0229 10.808 13.8736C11.4163 13.7242 12.7851 13.6721 12.7851 13.6721L12.4398 14.3202L11.4108 14.4326L8.34027 13.5296C8.34027 13.5296 7.30578 13.2159 7.1852 13.494C7.11532 13.6571 7.00434 14.0256 8.04705 14.4764C9.17059 14.9615 12.3494 16.5372 12.3494 16.5372L15.3323 16.0261L17.3122 17.7374L18.3836 13.7955L16.0708 12.091L16.0681 12.0896Z" fill="var(--fill-0, white)" stroke="var(--stroke-0, #054742)" stroke-width="0.160682" stroke-linecap="round" stroke-linejoin="round"/>
<g id="Vector_6">
<path d="M38.2014 8.73848C38.2014 8.73848 37.8726 10.4553 37.8726 12.057C37.8726 12.057 37.6931 21.1619 36.2859 23.8118C34.8788 26.4603 30.1284 24.8983 30.1284 24.8983C23.6584 23.2349 17.0226 18.7887 17.0226 18.7887C16.9802 16.6951 17.409 14.7741 18.5627 13.1189L28.9747 15.1413C28.9747 15.1413 29.2857 4.98558 29.9626 3.69076C30.253 2.56996 30.9258 1.40668 33.0783 0.0803524" fill="var(--fill-0, #82B0AB)"/>
<path d="M38.2014 8.73848C38.2014 8.73848 37.8726 10.4553 37.8726 12.057C37.8726 12.057 37.6931 21.1619 36.2859 23.8118C34.8788 26.4603 30.1284 24.8983 30.1284 24.8983C23.6584 23.2349 17.0226 18.7887 17.0226 18.7887C16.9802 16.6951 17.409 14.7741 18.5627 13.1189L28.9747 15.1413C28.9747 15.1413 29.2857 4.98558 29.9626 3.69076C30.253 2.56996 30.9258 1.40668 33.0783 0.0803524" stroke="var(--stroke-0, #054742)" stroke-width="0.160682" stroke-linecap="round" stroke-linejoin="round"/>
</g>
<path id="Vector_7" d="M20.9392 13.5818C19.976 15.7138 19.4252 17.8444 19.2854 19.9764" stroke="var(--stroke-0, #054742)" stroke-width="0.160682" stroke-linecap="round" stroke-linejoin="round"/>
<g id="Vector_8">
<path d="M37.9446 11.7597C39.0366 10.6581 39.8176 9.39342 40.078 7.85745Z" fill="var(--fill-0, #82B0AB)"/>
<path d="M37.9446 11.7597C39.0366 10.6581 39.8176 9.39342 40.078 7.85745" stroke="var(--stroke-0, #054742)" stroke-width="0.160682" stroke-linecap="round" stroke-linejoin="round"/>
</g>
<g id="Vector_9">
<path d="M28.9739 15.1424C29.8453 15.3273 30.7154 15.985 31.5868 17.114Z" fill="var(--fill-0, #82B0AB)"/>
<path d="M28.9739 15.1424C29.8453 15.3273 30.7154 15.985 31.5868 17.114" stroke="var(--stroke-0, #054742)" stroke-width="0.160682" stroke-linecap="round" stroke-linejoin="round"/>
</g>
</g>
</svg>
