<svg preserveAspectRatio="none" width="100%" height="100%" overflow="visible" style="display: block;" viewBox="0 0 18.5923 37.6658" fill="none" xmlns="http://www.w3.org/2000/svg">
<path id="Vector" d="M18.5119 35.5857C12.3681 38.252 6.2242 38.252 0.0803412 35.5857C1.78621 32.1534 2.24933 28.1251 2.17397 26.6973C2.12053 25.682 1.80129 20.6165 1.06962 16.7965C0.555804 14.1096 1.08742 11.3295 2.55077 9.01799C4.27171 6.29682 7.23539 3.48933 6.84626 3.48111C5.51856 3.45508 5.71724 2.39593 5.71587 1.65056C5.7145 0.783239 6.41604 0.0803411 7.28199 0.0803411H16.2964C16.7129 0.0803411 17.0637 0.395479 17.1061 0.810642L17.9447 9.02484C18.0488 10.0456 18.068 11.0719 18.0036 12.0954C17.7693 15.7921 17.2308 25.1107 17.6282 27.0207C17.8268 27.9716 18.2626 32.1863 18.5119 35.5857Z" fill="var(--fill-0, #82B0AB)" stroke="var(--stroke-0, #054742)" stroke-width="0.160682" stroke-linecap="round" stroke-linejoin="round"/>
</svg>
