<svg preserveAspectRatio="none" width="100%" height="100%" overflow="visible" style="display: block;" viewBox="0 0 59.9741 7.28541" fill="none" xmlns="http://www.w3.org/2000/svg">
<g id="Group">
<path id="Vector" d="M6.24458 4.81357C5.98439 6.24462 4.81354 7.28538 3.25239 7.28538C1.17086 7.28538 0 5.72423 0 3.6427C0 1.56118 1.17086 2.88654e-05 3.38248 2.88654e-05C4.94363 2.88654e-05 6.11449 0.910698 6.37468 2.34175H5.20382C5.07373 1.56118 4.42325 0.910699 3.38248 0.910699C1.95143 0.910699 1.30096 2.08156 1.30096 3.6427C1.30096 5.20385 1.95143 6.24462 3.38248 6.24462C4.29315 6.24462 4.94363 5.59414 5.20382 4.81357H6.24458Z" fill="var(--fill-0, #054742)"/>
<path id="Vector_2" d="M12.0996 5.5939C11.7093 6.63467 10.7987 7.28514 9.62779 7.28514C7.93655 7.28514 7.02588 6.11428 7.02588 4.55314C7.02588 2.99199 8.06665 1.82113 9.62779 1.82113C11.319 1.82113 12.0996 3.12209 12.0996 4.81333H8.19674C8.19674 5.85409 8.84722 6.24438 9.62779 6.24438C10.2783 6.24438 10.6686 5.85409 10.7986 5.46381H12.0996V5.5939ZM8.19674 4.03276H10.9287C10.9287 3.25218 10.4084 2.7318 9.62779 2.7318C8.71712 2.7318 8.19674 3.25218 8.19674 4.03276Z" fill="var(--fill-0, #054742)"/>
<path id="Vector_3" d="M14.1808 2.7318C14.3108 2.34151 14.8312 1.82113 15.6118 1.82113H15.7419V2.8619C15.6118 2.8619 15.4817 2.8619 15.4817 2.8619C14.7011 2.8619 14.1808 3.38228 14.1808 4.29295V7.02495H13.0099V1.82113H14.1808V2.7318Z" fill="var(--fill-0, #054742)"/>
<path id="Vector_4" d="M16.2617 1.95199H16.9122V0.390843H18.2132V1.95199H19.1238V2.86266H18.2132V5.59467C18.2132 6.11505 18.3433 6.24514 18.8636 6.24514C18.9937 6.24514 19.1238 6.24514 19.1238 6.24514V7.15581C18.8636 7.15581 18.7335 7.15581 18.4733 7.15581C17.953 7.15581 17.5627 7.15581 17.3025 6.89562C17.0423 6.76553 16.9122 6.50533 16.9122 5.98495V2.86266H16.2617V1.95199V1.95199Z" fill="var(--fill-0, #054742)"/>
<path id="Vector_5" d="M20.1652 0.13012H21.3361V1.30098H20.1652V0.13012ZM20.1652 1.95146H21.3361V7.15528H20.1652V1.95146Z" fill="var(--fill-0, #054742)"/>
<path id="Vector_6" d="M22.2457 1.95146H23.0263V1.69127C23.0263 0.520407 23.4166 0.13012 24.7176 0.13012C24.8476 0.13012 25.1078 0.13012 25.2379 0.13012V1.04079H24.9777C24.4574 1.04079 24.1972 1.17088 24.1972 1.69127V1.95146H25.2379V2.86213H24.1972V7.15528H23.0263V2.86213H22.2457V1.95146V1.95146ZM25.8884 0.13012H27.0593V1.30098H25.8884V0.13012ZM25.8884 1.95146H27.0593V7.15528H25.8884V1.95146Z" fill="var(--fill-0, #054742)"/>
<path id="Vector_7" d="M33.1741 5.5939C32.7838 6.63467 32.0033 7.28514 30.7023 7.28514C29.0111 7.28514 28.1004 6.11428 28.1004 4.55314C28.1004 2.99199 29.1412 1.82113 30.7023 1.82113C32.3935 1.82113 33.1741 3.12209 33.1741 4.81333H29.2712C29.2712 5.85409 29.9217 6.24438 30.7023 6.24438C31.3528 6.24438 31.7431 5.85409 31.8732 5.46381H33.1741V5.5939ZM29.2712 4.03276H32.0033C32.0033 3.25218 31.4829 2.7318 30.7023 2.7318C29.9217 2.7318 29.4013 3.25218 29.2712 4.03276Z" fill="var(--fill-0, #054742)"/>
<path id="Vector_8" d="M39.0279 7.15528H37.8571V6.5048C37.5969 6.89509 37.0765 7.28538 36.2959 7.28538C34.995 7.28538 33.9542 6.24461 33.9542 4.55337C33.9542 2.86213 34.995 1.82136 36.2959 1.82136C37.0765 1.82136 37.5969 2.21165 37.8571 2.47184V0.13012H39.0279V7.15528ZM35.1251 4.55337C35.1251 5.72423 35.6455 6.37471 36.426 6.37471C37.2066 6.37471 37.727 5.72423 37.727 4.55337C37.727 3.38251 37.2066 2.73203 36.426 2.73203C35.6455 2.73203 35.1251 3.5126 35.1251 4.55337Z" fill="var(--fill-0, #054742)"/>
<path id="Vector_9" d="M43.0621 4.94363C43.1921 5.8543 43.8426 6.24459 44.7533 6.24459C45.664 6.24459 46.3144 5.8543 46.3144 5.20382C46.3144 4.55334 45.664 4.29315 44.7533 4.16306L44.2329 4.03296C42.932 3.77277 42.1514 3.25239 42.1514 2.08153C42.1514 0.780574 43.3222 0 44.7533 0C46.1844 0 47.3552 0.650479 47.4853 2.21163H46.3144C46.1843 1.43105 45.664 1.04076 44.7533 1.04076C43.8426 1.04076 43.3222 1.43105 43.3222 1.95143C43.3222 2.47182 43.7125 2.73201 44.7533 2.9922L45.5339 3.12229C46.3144 3.25239 47.6154 3.64268 47.6154 5.07373C47.6154 6.50478 46.4445 7.28535 44.7533 7.28535C43.0621 7.28535 41.8912 6.63487 41.8912 4.94363H43.0621V4.94363Z" fill="var(--fill-0, #054742)"/>
<path id="Vector_10" d="M49.5656 4.94363C49.6957 5.8543 50.3462 6.24459 51.2569 6.24459C52.1675 6.24459 52.818 5.8543 52.818 5.20382C52.818 4.55334 52.1675 4.29315 51.2569 4.16306L50.6064 4.03296C49.3054 3.77277 48.5249 3.25239 48.5249 2.08153C48.5249 0.780574 49.6957 0 51.1268 0C52.5578 0 53.7287 0.650479 53.8588 2.21163H52.6879C52.5578 1.43105 52.0374 1.04076 51.1268 1.04076C50.2161 1.04076 49.6957 1.43105 49.6957 1.95143C49.6957 2.47182 50.086 2.73201 51.1268 2.9922L51.9074 3.12229C52.6879 3.25239 53.9889 3.64268 53.9889 5.07373C53.9889 6.50478 52.818 7.28535 51.1268 7.28535C49.4355 7.28535 48.2647 6.63487 48.2647 4.94363H49.5656V4.94363Z" fill="var(--fill-0, #054742)"/>
<path id="Vector_11" d="M56.3314 6.11452H59.9741V7.15528H55.1606V0.13012H56.4615V6.11452H56.3314Z" fill="var(--fill-0, #054742)"/>
</g>
</svg>
