<svg preserveAspectRatio="none" width="100%" height="100%" overflow="visible" style="display: block;" viewBox="0 0 96.285 102.011" fill="none" xmlns="http://www.w3.org/2000/svg">
<g id="Group">
<g id="Group_2">
<path id="Vector" d="M84.5645 65.3975L75.8296 51.3875L66.5576 54.4841L78.0781 67.0828L83.9013 65.8031L84.5645 65.3989V65.3975Z" fill="var(--fill-0, white)" stroke="var(--stroke-0, #054742)" stroke-width="0.160682" stroke-linecap="round" stroke-linejoin="round"/>
<path id="Vector_2" d="M76.6536 65.5025C76.6536 65.5025 81.6644 67.566 84.0224 64.3228L96.2047 70.6105L75.0821 70.4625L76.6536 65.5011V65.5025Z" fill="var(--fill-0, #EDEDED)" stroke="var(--stroke-0, #054742)" stroke-width="0.160682" stroke-linecap="round" stroke-linejoin="round"/>
<path id="Vector_3" d="M96.2047 72.3796L75.0821 72.2824V70.4641L96.2047 70.6107V72.3796Z" fill="var(--fill-0, #054742)" stroke="var(--stroke-0, #054742)" stroke-width="0.160682" stroke-linecap="round" stroke-linejoin="round"/>
<path id="Vector_4" d="M83.8736 67.0764C83.9229 67.0764 83.9723 67.0271 84.0216 66.9778C84.8081 65.946 85.5932 65.4555 85.5932 65.4062C85.7411 65.3075 85.7891 65.1116 85.6918 64.9636C85.5932 64.8156 85.3972 64.7677 85.1999 64.8649C85.1506 64.8649 84.3162 65.4541 83.431 66.5845C83.3324 66.7325 83.3324 66.9284 83.5297 67.0271C83.6777 67.1257 83.7749 67.1257 83.8736 67.0764Z" fill="var(--fill-0, #054742)"/>
<path id="Vector_5" d="M85.5435 67.9136C85.5928 67.9136 85.6422 67.8642 85.6915 67.8149C86.478 66.7832 87.2631 66.2926 87.2631 66.2433C87.4111 66.1447 87.459 65.9487 87.3617 65.8008C87.2631 65.6528 87.0672 65.6048 86.8698 65.7021C86.8205 65.7021 85.9861 66.2913 85.101 67.4217C85.0023 67.5697 85.0023 67.7656 85.1996 67.8642C85.2983 67.9629 85.4449 67.9629 85.5435 67.9136Z" fill="var(--fill-0, #054742)"/>
<path id="Vector_6" d="M87.214 68.7468C87.2634 68.7468 87.3127 68.6975 87.362 68.6496C88.1485 67.6178 88.9336 67.1259 88.9336 67.0766C89.0816 66.978 89.1295 66.782 89.0323 66.634C88.9336 66.4874 88.7377 66.4381 88.5417 66.5368C88.4924 66.5368 87.658 67.1259 86.7728 68.2563C86.6742 68.4029 86.6742 68.6002 86.8715 68.6989C86.9701 68.7469 87.1167 68.7962 87.2154 68.7468H87.214Z" fill="var(--fill-0, #054742)"/>
</g>
<path id="Vector_7" d="M14.8109 53.7969C14.0436 56.5359 12.1349 62.7866 9.75494 68.8496L4.3496 70.0951L1.14202 71.1132C0.433638 71.3379 -0.00892889 72.0435 0.0965746 72.7793L0.396643 74.8633C0.443229 75.1826 0.715894 75.4196 1.03788 75.4196C1.3955 75.4196 1.68598 75.1292 1.68598 74.7715V72.7588H13.7216C14.5149 71.938 14.7958 70.3541 14.4341 69.0264C16.9497 63.9609 19.9477 58.0869 20.815 55.785L14.8109 53.7955V53.7969Z" fill="var(--fill-0, white)" stroke="var(--stroke-0, #054742)" stroke-width="0.160682" stroke-linecap="round" stroke-linejoin="round"/>
<path id="Vector_8" d="M89.5253 101.654V72.3807H0.0803411V101.845H89.5253V101.654Z" fill="var(--fill-0, #DBECE4)" stroke="var(--stroke-0, #054742)" stroke-width="0.160682" stroke-linecap="round" stroke-linejoin="round"/>
<g id="Group_3">
<path id="Vector_9" d="M80.3826 94.6736L77.7422 81.3911L69.2197 82.2434L73.6427 96.374L80.1949 95.3505L80.3826 94.6736Z" fill="var(--fill-0, white)" stroke="var(--stroke-0, #054742)" stroke-width="0.160682" stroke-linecap="round" stroke-linejoin="round"/>
<path id="Vector_10" d="M72.9476 95.0533C72.9476 95.0533 77.9583 97.1168 80.3164 93.8736L92.4986 100.161L71.376 100.013L72.9476 95.0519V95.0533Z" fill="var(--fill-0, #EDEDED)" stroke="var(--stroke-0, #054742)" stroke-width="0.160682" stroke-linecap="round" stroke-linejoin="round"/>
<path id="Vector_11" d="M92.4968 101.93L71.3742 101.833V100.015L92.4968 100.161V101.93Z" fill="var(--fill-0, #054742)" stroke="var(--stroke-0, #054742)" stroke-width="0.160682" stroke-linecap="round" stroke-linejoin="round"/>
<path id="Vector_12" d="M80.1673 96.6272C80.2166 96.6272 80.266 96.5778 80.3153 96.5285C81.1018 95.4968 81.8869 95.0063 81.8869 94.9569C82.0349 94.8583 82.0828 94.6623 81.9855 94.5143C81.8869 94.3664 81.6909 94.3184 81.4936 94.4157C81.4443 94.4157 80.6099 95.0049 79.7247 96.1353C79.6261 96.2833 79.6261 96.4792 79.8234 96.5778C79.9714 96.6765 80.0687 96.6765 80.1673 96.6272Z" fill="var(--fill-0, #054742)"/>
<path id="Vector_13" d="M81.8375 97.4631C81.8868 97.4631 81.9361 97.4138 81.9854 97.3645C82.7719 96.3327 83.557 95.8422 83.557 95.7929C83.705 95.6942 83.753 95.4983 83.6557 95.3503C83.557 95.2023 83.3611 95.1544 83.1638 95.2517C83.1145 95.2517 82.28 95.8408 81.3949 96.9712C81.2962 97.1192 81.2962 97.3151 81.4936 97.4138C81.5922 97.5125 81.7388 97.5125 81.8375 97.4631Z" fill="var(--fill-0, #054742)"/>
<path id="Vector_14" d="M83.5079 98.2963C83.5572 98.2963 83.6066 98.247 83.6559 98.199C84.4424 97.1673 85.2275 96.6754 85.2275 96.6261C85.3754 96.5274 85.4234 96.3315 85.3261 96.1835C85.2275 96.0369 85.0315 95.9876 84.8356 96.0862C84.7863 96.0862 83.9518 96.6754 83.0667 97.8058C82.968 97.9524 82.968 98.1497 83.1654 98.2484C83.264 98.2963 83.4106 98.3457 83.5093 98.2963H83.5079Z" fill="var(--fill-0, #054742)"/>
</g>
<path id="Vector_15" d="M76.6995 49.6703L70.4542 38.0951C68.4743 34.4257 63.6842 33.3967 60.3711 35.9288L46.6214 46.4381L43.1521 48.4412L46.6214 64.9793L61.6207 51.3885C61.6207 51.3885 61.3563 53.6931 62.7498 53.6931C64.1432 53.6931 64.2104 55.051 64.5173 56.3554C64.8242 57.6598 66.404 58.349 67.5796 57.5968L76.0459 52.1846C76.8872 51.6461 77.1722 50.5499 76.6968 49.6717L76.6995 49.6703Z" fill="var(--fill-0, #82B0AB)" stroke="var(--stroke-0, #054742)" stroke-width="0.160682" stroke-linecap="round" stroke-linejoin="round"/>
<path id="Vector_16" d="M74.1439 62.9102C73.1437 59.4848 70.0019 57.1308 66.434 57.1308H50.4769C49.0382 55.3112 46.6418 52.6586 43.1533 48.4412L29.2556 56.4649C28.7309 60.7851 29.379 64.6983 31.2383 68.1922C32.5372 70.6339 35.072 72.1671 37.8384 72.1671H61.7863C62.5002 73.9209 65.2378 76.2078 63.8704 76.9983C62.6235 77.7177 64.1307 80.2128 65.183 81.6871C65.6831 82.3886 66.4942 82.8024 67.3561 82.8024H77.3817C78.6682 82.8024 79.5945 81.5665 79.2328 80.332L74.1426 62.9116L74.1439 62.9102Z" fill="var(--fill-0, #82B0AB)" stroke="var(--stroke-0, #054742)" stroke-width="0.160682" stroke-linecap="round" stroke-linejoin="round"/>
<path id="Vector_17" d="M57.4741 22.9242L68.8959 30.1094L64.3373 35.9436L52.2428 33.3307L46.621 46.4377C49.0667 55.4261 39.8126 60.0669 29.2554 60.1395C29.2554 60.1395 19.6463 25.8564 30.5872 22.5734C41.5266 19.2905 44.6575 19.5124 44.6575 19.5124L48.5132 19.7687C50.2958 19.8865 52.0523 20.2784 53.702 20.9662C55.0105 21.5129 56.2738 22.1665 57.4768 22.9242H57.4741Z" fill="var(--fill-0, #054742)" stroke="var(--stroke-0, #054742)" stroke-width="0.160682" stroke-linecap="round" stroke-linejoin="round"/>
<path id="Vector_18" d="M59.6488 34.7064L52.4225 38.4839C52.0101 38.7004 51.6347 38.9799 51.3086 39.3143C49.8699 40.794 45.7813 45.0909 45.2606 46.6817C44.6262 48.6177 46.0841 46.8584 46.8226 46.1966C46.8226 46.1966 45.3003 48.2862 45.8484 48.3163C46.3965 48.3465 49.6561 44.3908 49.6561 44.3908C49.6561 44.3908 48.4257 46.8009 48.3654 47.8998C48.3051 48.9973 48.9697 48.5903 49.2752 47.6586C49.5808 46.7269 51.1181 45.0457 51.1181 45.0457C51.1181 45.0457 50.174 47.1462 50.3412 47.9464C50.5097 48.7465 51.1784 47.5572 51.4264 46.7982C51.6744 46.0391 55.1478 43.57 55.8205 41.5161L65.5447 38.5415L59.6474 34.7064H59.6488Z" fill="var(--fill-0, white)" stroke="var(--stroke-0, #054742)" stroke-width="0.160682" stroke-linecap="round" stroke-linejoin="round"/>
<path id="Vector_19" d="M58.5975 33.9609L66.0992 39.954C66.0992 39.954 70.0385 38.8702 69.7781 37.6768C69.5192 36.4833 73.7667 35.9668 73.1597 33.1744C72.5527 30.382 68.5011 29.2694 66.1403 29.157L58.5975 33.9609Z" fill="var(--fill-0, #054742)" stroke="var(--stroke-0, #054742)" stroke-width="0.160682" stroke-linecap="round" stroke-linejoin="round"/>
<path id="Vector_20" d="M20.9249 57.6611L13.6986 55.2674C13.6986 55.2674 12.9533 45.3761 14.9743 45.0116C16.3417 44.765 15.0017 40.8956 17.3995 40.5654C18.793 40.3736 24.09 24.707 29.2542 23.1669L27.943 41.6149C27.2456 45.35 24.286 53.704 20.9236 57.6611H20.9249Z" fill="var(--fill-0, #054742)" stroke="var(--stroke-0, #054742)" stroke-width="0.160682" stroke-linecap="round" stroke-linejoin="round"/>
<path id="Vector_21" d="M37.5947 15.2016C37.5561 15.2016 37.5189 15.2401 37.4804 15.2401L37.5947 15.2016Z" fill="var(--fill-0, white)"/>
<path id="Vector_22" d="M45.8716 16.0314C45.34 16.2191 44.6563 15.993 44.6563 15.993L45.8716 16.0314Z" fill="var(--fill-0, white)"/>
<path id="Vector_23" d="M49.5161 11.6191C49.5161 10.1407 48.3089 8.94178 46.8209 8.94178C45.3316 8.94178 44.1258 10.1407 44.1258 11.6191C44.1258 13.0975 45.3329 14.2964 46.8209 14.2964C48.3103 14.2964 49.5161 13.0975 49.5161 11.6191Z" fill="var(--fill-0, #82B0AB)" stroke="var(--stroke-0, #054742)" stroke-width="0.160682" stroke-linecap="round" stroke-linejoin="round"/>
<path id="Vector_24" d="M35.1647 15.4646C35.5826 15.9551 36.4171 16.0305 36.9487 15.6153C36.6445 16.1059 36.9487 16.8225 37.4803 17.0485C38.012 17.2746 38.6189 17.1239 39.1122 16.8225C39.5685 16.521 39.9096 16.0305 40.2508 15.577L37.0611 10.8266C37.1364 11.2404 37.2131 11.6939 37.1364 12.1091C37.098 12.5242 36.8706 12.9764 36.5294 13.2025C36.1883 13.4285 35.6936 13.4669 35.3524 13.73C34.7825 14.1068 34.7071 14.9371 35.162 15.4646H35.1647Z" fill="var(--fill-0, #DBECE4)" stroke="var(--stroke-0, #054742)" stroke-width="0.160682" stroke-linecap="round" stroke-linejoin="round"/>
<path id="Vector_25" d="M41.1976 3.89762H41.5388C44.7655 3.70854 47.462 4.57586 47.8786 7.7437C48.2965 10.6855 48.676 13.9657 48.7514 15.5866C48.9035 18.9038 45.6 19.5834 45.6 19.5834C45.6 19.5834 45.7288 21.0056 45.8493 22.2689C45.3602 23.2527 44.3093 23.5062 43.8804 23.5761C41.114 23.7843 37.8982 21.7606 37.8982 21.7606L36.4883 9.32626C36.0334 5.89397 37.7406 4.27305 41.1962 3.89625L41.1976 3.89762Z" fill="var(--fill-0, white)" stroke="var(--stroke-0, #054742)" stroke-width="0.160682" stroke-linecap="round" stroke-linejoin="round"/>
<path id="Vector_26" d="M45.6556 20.4225C42.4658 20.913 41.3272 18.5371 41.3272 18.5371C43.5674 19.7812 45.5788 19.5552 45.5788 19.5552L45.6542 20.4225H45.6556Z" fill="var(--fill-0, #054742)" stroke="var(--stroke-0, #054742)" stroke-width="0.160682" stroke-linecap="round" stroke-linejoin="round"/>
<path id="Vector_27" d="M43.1025 8.29871C42.8366 8.14799 42.4187 8.07263 41.9638 8.07263C41.509 8.11099 41.128 8.22335 40.8622 8.37407C40.5964 8.52479 40.4827 8.67551 40.5211 8.75087C40.5964 8.90159 41.2431 8.7125 42.0022 8.7125C42.7613 8.67414 43.4066 8.78786 43.4834 8.63714C43.5217 8.56178 43.3696 8.41106 43.1038 8.29734L43.1025 8.29871Z" fill="var(--fill-0, #DBECE4)" stroke="var(--stroke-0, #054742)" stroke-width="0.160682" stroke-linecap="round" stroke-linejoin="round"/>
<path id="Vector_28" d="M47.8828 8.14925C47.6554 8.03552 47.3512 7.96017 46.9716 7.96017C46.6305 7.96017 46.2879 8.11089 46.0988 8.22461C45.9084 8.37533 45.8714 8.48906 45.9084 8.56442C46.0221 8.67814 46.4784 8.52605 47.01 8.52605C47.5416 8.48768 47.9965 8.60141 48.1116 8.45069C48.15 8.41369 48.0733 8.26297 47.8842 8.14925H47.8828Z" fill="var(--fill-0, #DBECE4)" stroke="var(--stroke-0, #054742)" stroke-width="0.160682" stroke-linecap="round" stroke-linejoin="round"/>
<path id="Vector_29" d="M37.7473 15.2769C37.7473 15.3158 37.7084 15.3158 37.6709 15.3158L37.7473 15.2769Z" fill="var(--fill-0, white)"/>
<path id="Vector_30" d="M37.7473 15.2769C37.7473 15.3158 37.7084 15.3158 37.6709 15.3158" stroke="var(--stroke-0, #054742)" stroke-width="0.160682" stroke-linecap="round" stroke-linejoin="round"/>
<path id="Vector_31" d="M37.6708 15.2767C37.1392 15.4275 35.6581 15.5412 35.5073 13.7312C35.3553 11.9965 36.6843 11.9582 37.2913 12.0335" fill="var(--fill-0, white)"/>
<path id="Vector_32" d="M37.6708 15.2767C37.1392 15.4275 35.6581 15.5412 35.5073 13.7312C35.3553 11.9965 36.6843 11.9582 37.2913 12.0335" stroke="var(--stroke-0, #054742)" stroke-width="0.160682" stroke-linecap="round" stroke-linejoin="round"/>
<path id="Vector_33" d="M37.291 12.0729H37.3304" stroke="var(--stroke-0, #054742)" stroke-width="0.160682" stroke-linecap="round" stroke-linejoin="round"/>
<path id="Vector_34" d="M45.0362 13.6935L45.7569 13.7318C45.9843 13.7318 46.1748 13.5057 46.098 13.2783L45.3773 11.0161" fill="var(--fill-0, white)"/>
<path id="Vector_35" d="M45.0362 13.6935L45.7569 13.7318C45.9843 13.7318 46.1748 13.5057 46.098 13.2783L45.3773 11.0161" stroke="var(--stroke-0, #054742)" stroke-width="0.160682" stroke-linecap="round" stroke-linejoin="round"/>
<path id="Vector_36" d="M37.6324 14.3717C37.2912 13.8811 36.8733 13.466 36.3417 13.1645L37.6324 14.3717Z" fill="var(--fill-0, white)"/>
<path id="Vector_37" d="M37.6324 14.3717C37.2912 13.8811 36.8733 13.466 36.3417 13.1645" stroke="var(--stroke-0, #054742)" stroke-width="0.160682" stroke-linecap="round" stroke-linejoin="round"/>
<path id="Vector_38" d="M49.44 7.65946C48.9084 7.92391 48.1493 7.65946 48.0356 7.09358C47.8081 7.47038 47.3149 7.65947 46.897 7.58411C46.4791 7.50875 46.0995 7.13195 46.0242 6.71678C45.683 7.2443 44.8856 7.43339 44.2402 7.2443C43.5949 7.05659 43.1016 6.56607 42.7221 6.00018C41.7725 6.86751 40.216 6.97986 39.1528 6.26463C39.646 6.64143 39.8748 7.28267 39.7597 7.84855C39.646 8.45143 39.1528 8.94195 38.5828 9.09267C39.076 9.73391 39.076 10.6766 38.6965 11.3932C38.6211 11.6946 38.506 11.9961 38.506 12.3359C38.506 12.7127 38.8102 13.0908 39.1898 13.0155C38.8486 13.2032 38.4307 13.1278 38.1265 12.8648C37.899 12.677 37.747 12.3742 37.7086 12.0728C37.3291 12.1112 36.9865 12.3742 36.7591 12.7894C36.1891 13.7691 34.86 13.9212 34.1009 13.0908C34.0753 13.0653 34.0502 13.0401 34.0256 13.0155C33.6844 12.6003 33.8351 11.8084 34.3667 11.6576C33.4939 11.4699 32.9239 10.4135 32.8102 9.54619C32.6965 8.67887 33.0377 8.03763 33.8351 7.62247C32.9239 7.16894 32.6581 5.92482 33.076 5.02051C33.4939 4.11619 34.5188 3.58867 35.5053 3.47495C35.3533 2.64462 35.9233 1.81567 36.644 1.40188C37.403 0.986713 38.2758 0.948348 39.1116 1.02508C39.3775 1.06344 39.6433 0.837365 39.8707 0.799C40.1749 0.760635 40.4024 0.87436 40.6682 0.760635C41.6177 0.346842 42.681 0.157758 43.7058 0.383837C44.6924 0.571551 45.6419 1.1758 46.1735 2.08011C46.8189 1.74168 47.6163 1.62796 48.337 1.81567C49.0208 2.04175 49.6661 2.64463 49.7798 3.3626C49.9319 4.0792 49.4387 4.90815 48.7166 5.05887C49.2482 5.24796 49.7415 5.62475 49.9319 6.19064C50.1224 6.75652 49.9319 7.43612 49.4387 7.6622L49.44 7.65946Z" fill="var(--fill-0, #DBECE4)" stroke="var(--stroke-0, #054742)" stroke-width="0.160682" stroke-linecap="round" stroke-linejoin="round"/>
<path id="Vector_39" d="M37.0621 10.4498V4.1525C37.0621 2.56858 38.1253 1.21074 39.6818 0.833937L41.9974 0.306419C42.1112 0.268054 42.1112 0.0803411 41.9591 0.0803411H39.7188C37.4786 0.0803411 35.6563 1.89034 35.6563 4.11551V10.3758L37.0607 10.4512L37.0621 10.4498Z" fill="var(--fill-0, #82B0AB)" stroke="var(--stroke-0, #054742)" stroke-width="0.160682" stroke-linecap="round" stroke-linejoin="round"/>
<path id="Vector_40" d="M39.3034 13.014C39.3034 11.5356 38.0962 10.3367 36.6082 10.3367C35.1202 10.3367 33.9131 11.5356 33.9131 13.014C33.9131 14.4924 35.1202 15.6913 36.6082 15.6913C38.0976 15.6913 39.3034 14.4924 39.3034 13.014Z" fill="var(--fill-0, #82B0AB)" stroke="var(--stroke-0, #054742)" stroke-width="0.160682" stroke-linecap="round" stroke-linejoin="round"/>
<path id="Vector_41" d="M38.696 13.014C38.696 11.5356 37.4888 10.3367 36.0008 10.3367C34.5114 10.3367 33.3057 11.5356 33.3057 13.014C33.3057 14.4924 34.5128 15.6913 36.0008 15.6913C37.4902 15.6913 38.696 14.4924 38.696 13.014Z" fill="var(--fill-0, #82B0AB)" stroke="var(--stroke-0, #054742)" stroke-width="0.160682" stroke-linecap="round" stroke-linejoin="round"/>
<path id="Vector_42" d="M42.487 11.6186C42.6762 11.6186 42.8295 11.3868 42.8295 11.1007C42.8295 10.8147 42.6762 10.5828 42.487 10.5828C42.2978 10.5828 42.1445 10.8147 42.1445 11.1007C42.1445 11.3868 42.2978 11.6186 42.487 11.6186Z" fill="var(--fill-0, #054742)" stroke="var(--stroke-0, #054742)" stroke-width="0.160682" stroke-linecap="round" stroke-linejoin="round"/>
<path id="Vector_43" d="M46.8211 11.4858C47.0103 11.4858 47.1637 11.254 47.1637 10.9679C47.1637 10.6819 47.0103 10.45 46.8211 10.45C46.6319 10.45 46.4786 10.6819 46.4786 10.9679C46.4786 11.254 46.6319 11.4858 46.8211 11.4858Z" fill="var(--fill-0, #054742)" stroke="var(--stroke-0, #054742)" stroke-width="0.160682" stroke-linecap="round" stroke-linejoin="round"/>
<path id="Vector_44" d="M46.5753 14.8589C46.2286 15.6043 44.2652 15.5892 43.4951 14.9959" stroke="var(--stroke-0, #054742)" stroke-width="0.160682" stroke-linecap="round" stroke-linejoin="round"/>
<path id="Vector_45" d="M46.1161 15.8472C45.5105 16.1938 44.9446 16.087 44.3828 15.8828" stroke="var(--stroke-0, #054742)" stroke-width="0.160682" stroke-linecap="round" stroke-linejoin="round"/>
<g id="Vector_46">
<path d="M8.46389 70.7674L4.80005 71.6169C4.31227 71.7292 3.86696 71.9772 3.51345 72.3321L3.08596 72.7596H11.8359C12.6799 72.7596 13.4609 72.3129 13.8898 71.5867L13.9282 71.5209" fill="var(--fill-0, white)"/>
<path d="M8.46389 70.7674L4.80005 71.6169C4.31227 71.7292 3.86696 71.9772 3.51345 72.3321L3.08596 72.7596H11.8359C12.6799 72.7596 13.4609 72.3129 13.8898 71.5867L13.9282 71.5209" stroke="var(--stroke-0, #054742)" stroke-width="0.160682" stroke-linecap="round" stroke-linejoin="round"/>
</g>
<path id="Vector_47" d="M46.9717 50.1304C48.5652 53.1708 50.9479 54.7356 50.4752 57.1306H46.9717" stroke="var(--stroke-0, #054742)" stroke-width="0.160682" stroke-linecap="round" stroke-linejoin="round"/>
<path id="Vector_48" d="M61.622 51.3867C61.5671 49.6164 61.8905 47.9654 62.9866 46.5582" stroke="var(--stroke-0, #054742)" stroke-width="0.160682" stroke-linecap="round" stroke-linejoin="round"/>
<path id="Vector_49" d="M62.75 53.6931C64.5175 49.732 65.1081 50.6198 64.5175 56.3554" stroke="var(--stroke-0, #054742)" stroke-width="0.160682" stroke-linecap="round" stroke-linejoin="round"/>
<path id="Vector_50" d="M59.7076 65.6196C60.2954 69.0136 60.9887 71.1949 61.7875 72.165C59.5774 71.21 58.1908 69.7137 57.629 67.6749" stroke="var(--stroke-0, #054742)" stroke-width="0.160682" stroke-linecap="round" stroke-linejoin="round"/>
<path id="Vector_51" d="M62.75 73.752C68.5966 76.9746 70.6833 78.7257 63.8695 76.9965" stroke="var(--stroke-0, #054742)" stroke-width="0.160682" stroke-linecap="round" stroke-linejoin="round"/>
<path id="Vector_52" d="M37.0874 59.1477C38.0205 62.617 37.0874 65.3382 34.2881 67.3099" stroke="var(--stroke-0, #054742)" stroke-width="0.160682" stroke-linecap="round" stroke-linejoin="round"/>
<path id="Vector_53" d="M60.6668 69.8013C60.4777 70.4959 59.7419 70.4754 58.5978 69.9191C52.0799 70.4631 45.255 70.448 38.1877 69.989C36.4942 69.8794 34.9774 68.912 34.1566 67.4267C32.9029 65.1577 31.8082 62.7106 30.8682 60.0908" stroke="var(--stroke-0, #054742)" stroke-width="0.160682" stroke-linecap="round" stroke-linejoin="round"/>
<path id="Vector_54" d="M52.2443 33.3289C53.5912 30.0775 53.8036 26.3972 52.2443 22.0482" stroke="var(--stroke-0, white)" stroke-width="0.160682" stroke-miterlimit="10"/>
<path id="Vector_55" d="M26.4246 46.9483L31.9122 34.7729C32.7329 32.9506 33.0782 30.9392 32.8329 28.9566C32.6137 27.1794 31.945 25.6051 30.4063 24.4227" stroke="var(--stroke-0, white)" stroke-width="0.160682" stroke-miterlimit="10"/>
<path id="Vector_56" d="M67.1625 29.2588C64.1138 30.3111 60.3335 32.2636 58.5975 33.9626L59.6484 34.7066" stroke="var(--stroke-0, white)" stroke-width="0.160682" stroke-miterlimit="10"/>
<path id="Vector_57" d="M17.6187 40.8347C19.3122 49.5833 18.4312 50.9754 14.9756 45.011" stroke="var(--stroke-0, white)" stroke-width="0.160682" stroke-miterlimit="10"/>
<path id="Vector_58" d="M35.4953 21.6522C41.398 26.8287 48.7545 26.5245 47.1637 20.4875" stroke="var(--stroke-0, white)" stroke-width="0.160682" stroke-miterlimit="10"/>
<path id="Vector_59" d="M52.4932 32.6865C54.3141 30.0818 56.0419 28.2759 57.6272 27.6895" stroke="var(--stroke-0, white)" stroke-width="0.160682" stroke-miterlimit="10"/>
<path id="Vector_60" d="M53.053 33.504C53.7956 32.597 54.704 31.7598 56.4716 31.2734" stroke="var(--stroke-0, white)" stroke-width="0.160682" stroke-miterlimit="10"/>
<path id="Vector_61" d="M69.8252 37.3209C69.2566 35.0217 70.0622 34.1407 71.0748 32.6856" stroke="var(--stroke-0, white)" stroke-width="0.160682" stroke-miterlimit="10"/>
<path id="Vector_62" d="M48.7586 40.4129C43.7027 42.2709 39.3222 44.7057 35.4104 47.5392C34.9829 47.8489 35.335 48.5161 35.831 48.338C39.1331 47.1555 42.2106 46.3814 44.6563 46.7568" stroke="var(--stroke-0, white)" stroke-width="0.160682" stroke-miterlimit="10"/>
<path id="Vector_63" d="M46.8478 46.0719L48.492 43.6973" stroke="var(--stroke-0, #054742)" stroke-width="0.160682" stroke-linecap="round" stroke-linejoin="round"/>
</g>
</svg>
