<svg preserveAspectRatio="none" width="100%" height="100%" overflow="visible" style="display: block;" viewBox="0 0 47.4619 61.1264" fill="none" xmlns="http://www.w3.org/2000/svg">
<g id="Group">
<path id="Vector" d="M13.2821 41.6267C13.1777 41.6267 13.0734 41.7311 12.969 41.7311L13.2821 41.6267Z" fill="var(--fill-0, white)"/>
<path id="Vector_2" d="M46.0355 31.7807C46.0355 27.7181 42.7197 24.4256 38.6297 24.4256C34.5397 24.4256 31.2239 27.7195 31.2239 31.7807C31.2239 35.8432 34.5397 39.1357 38.6297 39.1357C42.7197 39.1357 46.0355 35.8418 46.0355 31.7807Z" fill="var(--fill-0, white)" stroke="var(--stroke-0, #054742)" stroke-width="0.160682" stroke-linecap="round" stroke-linejoin="round"/>
<path id="Vector_3" d="M6.60485 42.3496C7.75169 43.6965 10.0467 43.9034 11.5073 42.7634C10.6729 44.1116 11.5073 46.0792 12.9679 46.7013C14.4285 47.3219 16.0974 46.9095 17.4539 46.0806C18.7062 45.2516 19.6448 43.9047 20.5834 42.6606L11.8211 29.607C12.0294 30.7456 12.2376 31.9897 12.0294 33.1283C11.9252 34.2697 11.2991 35.511 10.3605 36.1331C9.42193 36.7538 8.06546 36.8579 7.12689 37.5841C5.56215 38.6213 5.35388 40.8999 6.60485 42.3509V42.3496Z" fill="var(--fill-0, white)" stroke="var(--stroke-0, #054742)" stroke-width="0.160682" stroke-linecap="round" stroke-linejoin="round"/>
<g id="Vector_4">
<path d="M43.7623 40.0371C43.8431 41.0346 43.9021 41.9266 43.9377 42.6857C44.3556 51.8014 35.2796 53.6676 35.2796 53.6676C35.2796 53.6676 35.6331 57.5754 35.966 61.046" fill="var(--fill-0, white)"/>
<path d="M43.7623 40.0371C43.8431 41.0346 43.9021 41.9266 43.9377 42.6857C44.3556 51.8014 35.2796 53.6676 35.2796 53.6676C35.2796 53.6676 35.6331 57.5754 35.966 61.046" stroke="var(--stroke-0, #054742)" stroke-width="0.160682" stroke-linecap="round" stroke-linejoin="round"/>
</g>
<g id="Vector_5">
<path d="M12.9076 48.9585L10.2453 25.4874C8.99298 16.0578 13.6872 11.6034 23.1798 10.5689H24.1183C32.9847 10.0496 40.3919 12.4323 41.5387 21.1371C42.491 27.84 43.124 33.4508 43.5159 38.3026" fill="var(--fill-0, white)"/>
<path d="M12.9076 48.9585L10.2453 25.4874C8.99298 16.0578 13.6872 11.6034 23.1798 10.5689H24.1183C32.9847 10.0496 40.3919 12.4323 41.5387 21.1371C42.491 27.84 43.124 33.4508 43.5159 38.3026" stroke="var(--stroke-0, #054742)" stroke-width="0.160682" stroke-linecap="round" stroke-linejoin="round"/>
</g>
<g id="Vector_6">
<path d="M14.1196 59.6492L13.2112 51.6419Z" fill="var(--fill-0, white)"/>
<path d="M14.1196 59.6492L13.2112 51.6419" stroke="var(--stroke-0, #054742)" stroke-width="0.160682" stroke-linecap="round" stroke-linejoin="round"/>
</g>
<g id="Vector_7">
<path d="M23.5393 50.7874C29.6941 54.206 35.2228 53.5839 35.2228 53.5839Z" fill="var(--fill-0, white)"/>
<path d="M23.5393 50.7874C29.6941 54.206 35.2228 53.5839 35.2228 53.5839" stroke="var(--stroke-0, #054742)" stroke-width="0.160682" stroke-linecap="round" stroke-linejoin="round"/>
</g>
<path id="Vector_8" d="M28.412 22.6581C27.6817 22.2443 26.5349 22.0374 25.2825 22.0374C24.0302 22.1415 22.9875 22.4512 22.2572 22.8663C21.5269 23.2801 21.2145 23.6953 21.3186 23.9035C21.5269 24.3173 23.3012 23.7994 25.3867 23.7994C27.4734 23.6953 29.2464 24.0049 29.4547 23.5911C29.5588 23.3829 29.1423 22.9705 28.412 22.6581Z" fill="var(--fill-0, white)" stroke="var(--stroke-0, #054742)" stroke-width="0.160682" stroke-linecap="round" stroke-linejoin="round"/>
<path id="Vector_9" d="M41.421 22.47C40.7948 22.1576 39.9604 21.9507 38.9177 21.9507C37.9791 21.9507 37.0406 22.3659 36.5185 22.6755C35.9965 23.0907 35.8924 23.4003 35.9965 23.6086C36.3089 23.921 37.5612 23.5045 39.0218 23.5045C40.4825 23.4003 41.7334 23.7127 42.0472 23.2962C42.1513 23.1948 41.943 22.7783 41.421 22.47Z" fill="var(--fill-0, white)" stroke="var(--stroke-0, #054742)" stroke-width="0.160682" stroke-linecap="round" stroke-linejoin="round"/>
<path id="Vector_10" d="M13.7002 41.8325C13.7002 41.9369 13.5958 41.9369 13.4915 41.9369L13.7002 41.8325Z" fill="var(--fill-0, white)"/>
<path id="Vector_11" d="M13.7002 41.8325C13.7002 41.9369 13.5958 41.9369 13.4915 41.9369" stroke="var(--stroke-0, #054742)" stroke-width="0.160682" stroke-linecap="round" stroke-linejoin="round"/>
<path id="Vector_12" d="M13.4914 41.8324C12.0308 42.2476 7.96274 42.5573 7.54484 37.5849C7.1283 32.8181 10.7784 32.7139 12.4473 32.9222" fill="var(--fill-0, white)"/>
<path id="Vector_13" d="M13.4914 41.8324C12.0308 42.2476 7.96274 42.5573 7.54484 37.5849C7.1283 32.8181 10.7784 32.7139 12.4473 32.9222" stroke="var(--stroke-0, #054742)" stroke-width="0.160682" stroke-linecap="round" stroke-linejoin="round"/>
<path id="Vector_14" d="M12.4475 33.0266H12.553" stroke="var(--stroke-0, #054742)" stroke-width="0.160682" stroke-linecap="round" stroke-linejoin="round"/>
<path id="Vector_15" d="M33.7268 37.4812L35.7081 37.5854C36.3343 37.5854 36.8549 36.9647 36.6467 36.3399L34.6654 30.1248" stroke="var(--stroke-0, #054742)" stroke-width="0.160682" stroke-linecap="round" stroke-linejoin="round"/>
<path id="Vector_16" d="M13.3851 39.3442C12.4466 37.9973 11.2984 36.8573 9.83912 36.0283L13.3851 39.3442Z" fill="var(--fill-0, white)"/>
<path id="Vector_17" d="M13.3851 39.3442C12.4466 37.9973 11.2984 36.8573 9.83912 36.0283" stroke="var(--stroke-0, #054742)" stroke-width="0.160682" stroke-linecap="round" stroke-linejoin="round"/>
<path id="Vector_18" d="M45.8273 20.904C44.3667 21.6288 42.2799 20.904 41.9675 19.3502C41.3414 20.3847 39.9863 20.904 38.838 20.6971C37.6912 20.4889 36.6471 19.4544 36.4389 18.3144C35.5003 19.764 33.3094 20.2847 31.5364 19.764C29.7634 19.2461 28.4069 17.9006 27.3642 16.3454C24.7568 18.7282 20.4791 19.0378 17.5592 17.0703C18.9157 18.1047 19.5419 19.8668 19.2281 21.4219C18.9157 23.0798 17.5592 24.4267 15.9945 24.8405C17.351 26.6026 17.351 29.1936 16.3069 31.1611C16.0986 31.9901 15.7849 32.819 15.7849 33.7494C15.7849 34.7866 16.6193 35.8238 17.662 35.6156C16.7234 36.1335 15.5752 35.9252 14.7408 35.2004C14.1146 34.6825 13.6981 33.8535 13.594 33.0246C12.5513 33.1287 11.6113 33.8535 10.9865 34.9949C9.42178 37.6873 5.77026 38.1038 3.68486 35.8238C3.61544 35.7544 3.54601 35.685 3.47659 35.6156C2.53802 34.4742 2.95455 32.2998 4.41516 31.886C2.01598 31.368 0.451246 28.4674 0.138846 26.0846C-0.173554 23.7019 0.765014 21.9399 2.95455 20.8012C0.451244 19.5558 -0.279056 16.1385 0.86778 13.6517C2.01462 11.1662 4.83169 9.71654 7.54327 9.40414C7.12536 7.12417 8.69011 4.84557 10.6727 3.70695C12.7595 2.5656 15.1587 2.46284 17.4524 2.66973C18.1827 2.77387 18.913 2.15181 19.5391 2.04904C20.3736 1.94491 20.9997 2.25731 21.7301 1.94491C24.3375 0.806295 27.2587 0.287 30.0758 0.91043C32.7874 1.42836 35.3962 3.08627 36.8554 5.57039C38.6284 4.64004 40.8193 4.32764 42.802 4.84557C44.6791 5.46626 46.4535 7.12554 46.7659 9.09448C47.1838 11.0621 45.8273 13.342 43.8447 13.7544C45.3053 14.2737 46.6604 15.3082 47.1824 16.8634C47.7045 18.4171 47.1824 20.2833 45.8259 20.9054L45.8273 20.904Z" fill="var(--fill-0, white)" stroke="var(--stroke-0, #054742)" stroke-width="0.160682" stroke-linecap="round" stroke-linejoin="round"/>
<g id="Vector_19">
<path d="M8.09645 17.4487L7.96217 28.3635L11.822 28.5718V11.2692C11.822 6.91751 14.7432 3.1879 19.0195 2.15205L25.3826 0.701032C25.695 0.596899 25.695 0.0803411 25.2784 0.0803411H19.1236C12.9688 0.0803411 7.96217 5.05271 7.96217 11.1651V13.3998" fill="var(--fill-0, white)"/>
<path d="M8.09645 17.4487L7.96217 28.3635L11.822 28.5718V11.2692C11.822 6.91751 14.7432 3.1879 19.0195 2.15205L25.3826 0.701032C25.695 0.596899 25.695 0.0803411 25.2784 0.0803411H19.1236C12.9688 0.0803411 7.96217 5.05271 7.96217 11.1651V13.3998" stroke="var(--stroke-0, #054742)" stroke-width="0.160682" stroke-linecap="round" stroke-linejoin="round"/>
</g>
<path id="Vector_20" d="M17.9759 35.6141C17.9759 31.5516 14.6601 28.2591 10.5701 28.2591C6.48015 28.2591 3.16432 31.553 3.16432 35.6141C3.16432 39.6767 6.48015 42.9692 10.5701 42.9692C14.6601 42.9692 17.9759 39.6753 17.9759 35.6141Z" fill="var(--fill-0, white)" stroke="var(--stroke-0, #054742)" stroke-width="0.160682" stroke-linecap="round" stroke-linejoin="round"/>
<g id="Vector_21">
<path d="M3.53223 40.6824C4.88185 42.091 6.78777 42.9692 8.89921 42.9692C12.9892 42.9692 16.305 39.6753 16.305 35.6141C16.305 31.5516 12.9892 28.2591 8.89921 28.2591C4.80924 28.2591 1.49342 31.553 1.49342 35.6141C1.49342 36.4623 1.63729 37.2775 1.90447 38.0352" fill="var(--fill-0, white)"/>
<path d="M3.53223 40.6824C4.88185 42.091 6.78777 42.9692 8.89921 42.9692C12.9892 42.9692 16.305 39.6753 16.305 35.6141C16.305 31.5516 12.9892 28.2591 8.89921 28.2591C4.80924 28.2591 1.49342 31.553 1.49342 35.6141C1.49342 36.4623 1.63729 37.2775 1.90447 38.0352" stroke="var(--stroke-0, #054742)" stroke-width="0.160682" stroke-linecap="round" stroke-linejoin="round"/>
</g>
<path id="Vector_22" d="M26.7238 31.781C27.2437 31.781 27.6651 31.1443 27.6651 30.3588C27.6651 29.5733 27.2437 28.9365 26.7238 28.9365C26.2039 28.9365 25.7825 29.5733 25.7825 30.3588C25.7825 31.1443 26.2039 31.781 26.7238 31.781Z" fill="var(--fill-0, #054742)" stroke="var(--stroke-0, #054742)" stroke-width="0.160682" stroke-linecap="round" stroke-linejoin="round"/>
<path id="Vector_23" d="M38.6291 31.4151C39.149 31.4151 39.5704 30.7783 39.5704 29.9928C39.5704 29.2073 39.149 28.5706 38.6291 28.5706C38.1092 28.5706 37.6878 29.2073 37.6878 29.9928C37.6878 30.7783 38.1092 31.4151 38.6291 31.4151Z" fill="var(--fill-0, #054742)" stroke="var(--stroke-0, #054742)" stroke-width="0.160682" stroke-linecap="round" stroke-linejoin="round"/>
<path id="Vector_24" d="M37.9586 40.6826C37.0063 42.7283 31.6133 42.6899 29.4964 41.0594" stroke="var(--stroke-0, #054742)" stroke-width="0.160682" stroke-linecap="round" stroke-linejoin="round"/>
<path id="Vector_25" d="M36.6956 43.3994C35.0322 44.3503 33.4757 44.0585 31.9329 43.4967" stroke="var(--stroke-0, #054742)" stroke-width="0.160682" stroke-linecap="round" stroke-linejoin="round"/>
</g>
</svg>
