<svg preserveAspectRatio="none" width="100%" height="100%" overflow="visible" style="display: block;" viewBox="0 0 93.477 148.674" fill="none" xmlns="http://www.w3.org/2000/svg">
<g id="Group">
<g id="Group_2">
<path id="Vector" d="M75.9398 148.594L54.7213 20.0522L57.7809 19.5466L79.083 148.594H75.9398Z" fill="var(--fill-0, #DBECE4)" stroke="var(--stroke-0, #054742)" stroke-width="0.160682" stroke-linecap="round" stroke-linejoin="round"/>
<path id="Vector_2" d="M46.4291 0.0803431L43.3326 0.242081L48.3922 97.1088L51.4887 96.9471L46.4291 0.0803431Z" fill="var(--fill-0, #DBECE4)" stroke="var(--stroke-0, #054742)" stroke-width="0.160682" stroke-linecap="round" stroke-linejoin="round"/>
<path id="Vector_3" d="M18.8432 148.594L40.1453 19.5466L43.2049 20.0522L21.9864 148.594H18.8432Z" fill="var(--fill-0, #DBECE4)" stroke="var(--stroke-0, #054742)" stroke-width="0.160682" stroke-linecap="round" stroke-linejoin="round"/>
<path id="Vector_4" d="M20.3109 103.381H76.6853C77.2183 103.381 77.6513 102.948 77.6513 102.415V99.7628H19.3463V102.415C19.3463 102.948 19.7793 103.381 20.3122 103.381H20.3109Z" fill="var(--fill-0, #DBECE4)" stroke="var(--stroke-0, #054742)" stroke-width="0.160682" stroke-linecap="round" stroke-linejoin="round"/>
<path id="Vector_5" d="M34.5936 16.9053H56.7164V14.3157C56.7164 13.7471 56.2561 13.2867 55.6874 13.2867H35.6212C35.0526 13.2867 34.5922 13.7471 34.5922 14.3157V16.9053H34.5936Z" fill="var(--fill-0, #DBECE4)" stroke="var(--stroke-0, #054742)" stroke-width="0.160682" stroke-linecap="round" stroke-linejoin="round"/>
</g>
<path id="Vector_6" d="M92.1837 80.91L92.0714 79.3151L91.8248 75.7993L91.1684 66.4245L91.141 66.0217L90.2299 53.0119L89.849 47.575L87.8033 18.3574C87.7444 17.5216 87.1319 16.8776 86.3947 16.8776H1.49326C0.668415 16.8776 0.0203263 17.6778 0.0847245 18.6137L2.84014 57.9555L2.93469 59.3092L3.6924 70.1295L3.77735 71.3448L3.79927 71.6586L3.84859 72.3519L4.07193 75.5417L4.20073 77.3722L4.4912 81.5225L4.92555 87.728L5.09271 90.1162L5.31468 93.2786L5.37497 94.15L5.67366 98.4126C5.73258 99.2484 6.34505 99.8924 7.08221 99.8924H91.9837C92.8085 99.8924 93.4566 99.0922 93.3922 98.1578L92.1851 80.9114L92.1837 80.91Z" fill="var(--fill-0, white)" stroke="var(--stroke-0, #054742)" stroke-width="0.160682" stroke-linecap="round" stroke-linejoin="round"/>
</g>
</svg>
