<svg preserveAspectRatio="none" width="100%" height="100%" overflow="visible" style="display: block;" viewBox="0 0 49.1423 68.3421" fill="none" xmlns="http://www.w3.org/2000/svg">
<g id="Group">
<path id="Vector" d="M4.80566 0.168945C5.73437 0.0607531 6.63041 0.0972019 7.29492 0.160156C7.62673 0.191594 7.90041 0.229463 8.09082 0.259766C8.18602 0.274919 8.26113 0.288504 8.31152 0.297852C8.32367 0.300106 8.33445 0.301931 8.34375 0.303711C8.35181 0.317708 8.36188 0.335438 8.37402 0.356445C8.40878 0.416586 8.45989 0.504968 8.52539 0.617188C8.65645 0.841712 8.84551 1.16237 9.07617 1.54785C9.53756 2.31891 10.1674 3.34902 10.8398 4.38477C11.5119 5.41998 12.2277 6.46316 12.8623 7.25879C13.1794 7.65639 13.4781 7.99503 13.7422 8.24023C13.8742 8.36283 14 8.46334 14.1162 8.53711C14.2302 8.60947 14.342 8.65898 14.4473 8.67285V8.67383C14.5561 8.69082 14.656 8.66753 14.7285 8.58984C14.7954 8.51802 14.8241 8.41499 14.833 8.30566C14.8509 8.08582 14.7955 7.77203 14.6953 7.40625C14.4934 6.66912 14.0965 5.67008 13.6592 4.66992C13.2213 3.66838 12.7399 2.66047 12.3691 1.90332C12.1838 1.52481 12.0258 1.20876 11.9141 0.987305C11.8714 0.902699 11.8357 0.831579 11.8076 0.776367C12.435 0.752053 13.2766 0.921824 14.2061 1.20605C15.2082 1.51251 16.2997 1.94494 17.3105 2.38672C18.3211 2.82837 19.2499 3.27783 19.9258 3.61719C20.2632 3.78664 20.5375 3.92879 20.7275 4.02832C20.8226 4.0781 20.8972 4.11783 20.9473 4.14453C20.9546 4.14843 20.9615 4.15191 20.9678 4.15527C20.9672 4.1683 20.9666 4.18333 20.9658 4.2002C20.9627 4.2703 20.9582 4.37328 20.9531 4.50391C20.943 4.76519 20.93 5.13808 20.9189 5.58496C20.8969 6.47888 20.8829 7.66962 20.9121 8.85547C20.9413 10.0402 21.0147 11.225 21.1699 12.1045C21.2473 12.543 21.3463 12.9138 21.4746 13.1719C21.5994 13.4228 21.7759 13.6106 22.0205 13.5811L22.0234 13.5801C22.2501 13.5446 22.3968 13.3456 22.4932 13.0908C22.5914 12.831 22.6513 12.4793 22.6836 12.0732C22.7482 11.2591 22.7045 10.1976 22.6191 9.14844C22.5337 8.09837 22.4056 7.05552 22.2988 6.27539C22.2454 5.88524 22.1978 5.56015 22.1631 5.33301C22.152 5.26059 22.1419 5.19806 22.1338 5.14648C23.3331 5.61692 24.4924 6.62966 25.3682 7.55176C25.8239 8.03162 26.2005 8.48423 26.4629 8.81641C26.5939 8.98225 26.6969 9.11767 26.7666 9.21191C26.8015 9.25907 26.8278 9.29642 26.8457 9.32129C26.8546 9.33364 26.8618 9.34332 26.8662 9.34961L26.8672 9.35156C28.3337 12.0779 27.4992 14.4448 26.2871 16.1426C25.6804 16.9924 24.9805 17.6716 24.4316 18.1387C24.1574 18.3721 23.9212 18.5523 23.7539 18.6738C23.6703 18.7346 23.6039 18.7807 23.5586 18.8115C23.536 18.8269 23.5184 18.839 23.5068 18.8467C23.5014 18.8503 23.4969 18.8527 23.4941 18.8545C23.4927 18.8554 23.4919 18.857 23.4912 18.8574H23.4902L23.4453 18.8857L23.4443 18.9395V18.9424C23.4443 18.9441 23.4434 18.947 23.4434 18.9502C23.4432 18.9569 23.4435 18.9668 23.4434 18.9795C23.4432 19.0054 23.4437 19.044 23.4443 19.0938C23.4455 19.1934 23.4489 19.3395 23.459 19.5264C23.4792 19.9004 23.5251 20.4381 23.627 21.0947C23.818 22.3261 24.2062 23.9774 24.9961 25.752L25.1592 26.1084L25.1631 26.1152L25.165 26.1172C25.166 26.1189 25.1669 26.1224 25.1689 26.126C25.173 26.1332 25.1796 26.1438 25.1875 26.1582C25.2035 26.1875 25.227 26.2322 25.2568 26.29C25.3164 26.4056 25.4007 26.5768 25.5 26.7979C25.6989 27.2409 25.9577 27.8845 26.1934 28.6846C26.6648 30.2853 27.0454 32.5108 26.6855 35.0098L26.6689 35.124H28.9004L28.8887 35.0127C28.6987 33.2168 28.9943 31.6306 29.3379 30.4932C29.5096 29.9248 29.6927 29.4685 29.833 29.1553C29.9031 28.9988 29.9633 28.8783 30.0049 28.7969C30.0257 28.7561 30.0416 28.7246 30.0527 28.7041C30.0582 28.694 30.0626 28.6867 30.0654 28.6816C30.0668 28.6791 30.0677 28.677 30.0684 28.6758L30.0693 28.6748L30.0732 28.667C30.7605 27.2062 31.083 25.8418 31.2334 24.8428C31.3086 24.3433 31.341 23.9346 31.3545 23.6504C31.3612 23.5083 31.3629 23.3971 31.3633 23.3213C31.3635 23.2834 31.3636 23.2541 31.3633 23.2344C31.3631 23.2246 31.3624 23.217 31.3623 23.2119V23.2041L31.3604 23.1514L31.3164 23.123L31.3154 23.1221L31.3135 23.1211C31.3113 23.1197 31.308 23.1171 31.3037 23.1143C31.295 23.1085 31.2816 23.1004 31.2646 23.0889C31.2304 23.0656 31.1796 23.0304 31.1162 22.9844C30.9895 22.8923 30.8105 22.7552 30.6025 22.5781C30.1863 22.2237 29.6554 21.7088 29.1953 21.0645C28.3046 19.8169 27.6837 18.0953 28.6514 16.1104L28.75 15.917C28.7532 15.9125 28.7583 15.9069 28.7637 15.8994C28.777 15.8809 28.7972 15.8536 28.8232 15.8184C28.8755 15.7478 28.9523 15.6458 29.0508 15.5215C29.2478 15.2728 29.5304 14.9339 29.874 14.5742C30.526 13.8917 31.387 13.1427 32.2871 12.7813C32.2824 12.8119 32.2782 12.8466 32.2725 12.8848C32.2464 13.0581 32.21 13.306 32.1699 13.6035C32.0898 14.1984 31.9938 14.9935 31.9297 15.793C31.8656 16.5913 31.8332 17.3987 31.8818 18.0166C31.9061 18.3245 31.9505 18.5929 32.0254 18.791C32.0979 18.9825 32.213 19.1422 32.3975 19.167V19.168C32.6005 19.2005 32.7437 19.0481 32.8398 18.8594C32.9393 18.6641 33.0148 18.3831 33.0742 18.0527C33.1935 17.3892 33.2514 16.4926 33.2754 15.5957C33.2994 14.6976 33.2898 13.7943 33.2744 13.1162C33.2667 12.7772 33.2573 12.4942 33.25 12.2959C33.2464 12.1968 33.2435 12.1187 33.2412 12.0654C33.2409 12.0585 33.2405 12.052 33.2402 12.0459C33.2411 12.0454 33.2423 12.0454 33.2432 12.0449C33.2809 12.0245 33.3375 11.9942 33.4092 11.9561C33.5526 11.8797 33.7598 11.7706 34.0146 11.6406C34.5246 11.3806 35.2248 11.0358 35.9873 10.6982C36.7503 10.3605 37.574 10.0301 38.3301 9.79785C39.0144 9.58764 39.6333 9.46226 40.0996 9.47656C40.0815 9.51219 40.0604 9.55451 40.0361 9.60254C39.9517 9.76931 39.8324 10.0078 39.6924 10.293C39.4123 10.8634 39.049 11.6236 38.7178 12.3799C38.387 13.135 38.0856 13.8917 37.9316 14.4531C37.8554 14.7313 37.8121 14.9735 37.8252 15.1465C37.8317 15.2324 37.8531 15.3174 37.9072 15.3789C37.9667 15.4465 38.0498 15.469 38.1387 15.458C38.2257 15.4475 38.3165 15.4076 38.4072 15.3516C38.499 15.2949 38.5976 15.2181 38.7002 15.125C38.9055 14.9387 39.1357 14.6815 39.3799 14.3809C39.8686 13.7791 40.4187 12.9909 40.9336 12.209C41.4487 11.4266 41.9304 10.6479 42.2832 10.0654C42.4595 9.77443 42.6039 9.53193 42.7041 9.3623C42.7542 9.2775 42.7937 9.21049 42.8203 9.16504C42.8272 9.1533 42.8327 9.14265 42.8379 9.13379C42.8421 9.13298 42.8467 9.13274 42.8516 9.13184C42.8894 9.12473 42.9459 9.11507 43.0176 9.10352C43.1609 9.08041 43.3672 9.05043 43.6172 9.02637C44.1178 8.97821 44.7928 8.95061 45.4922 9.03223C46.8955 9.19604 48.3631 9.79241 48.7744 11.5C49.1968 13.2545 49.0678 14.5674 48.7451 15.4629C48.5836 15.9109 48.3735 16.2542 48.1602 16.4971C47.9456 16.7412 47.7324 16.8792 47.5654 16.9258C47.4788 16.9499 47.3245 16.9724 47.1143 16.9932C46.9063 17.0137 46.6499 17.0321 46.3633 17.0508C45.7913 17.0881 45.0979 17.1253 44.4336 17.1787C43.7698 17.2321 43.128 17.3024 42.6592 17.4053C42.4261 17.4564 42.2273 17.5172 42.0889 17.5928C41.9575 17.6646 41.8371 17.7756 41.8652 17.9355C41.8868 18.0582 41.9724 18.1744 42.0859 18.2803C42.2018 18.3883 42.3583 18.4967 42.5439 18.6006C42.9156 18.8086 43.4149 19.0076 43.9668 19.1611C44.9919 19.4463 46.2223 19.5813 47.168 19.3135C47.1612 19.3308 47.1551 19.3497 47.1475 19.3691C47.0854 19.5272 46.9936 19.7533 46.875 20.0234C46.6376 20.5641 46.2929 21.2814 45.8643 21.9883C45.4351 22.6959 44.9248 23.3886 44.3564 23.8848C43.7876 24.3813 43.1721 24.6718 42.5293 24.6016L42.5273 24.6006C41.1889 24.4756 40.321 23.9342 39.5693 23.3994C38.8235 22.8688 38.1678 22.3219 37.2803 22.2549C36.4198 22.1906 35.6667 22.2862 35.2305 22.4707C35.1208 22.5171 35.0264 22.571 34.9551 22.6328C34.884 22.6945 34.8295 22.7701 34.8125 22.8584C34.777 23.0441 34.914 23.2059 35.1318 23.3369C35.3642 23.4766 35.7218 23.5528 36.1289 23.6133C36.335 23.6439 36.5594 23.671 36.792 23.6992C37.0249 23.7275 37.2674 23.7572 37.5137 23.793C38.4432 23.928 39.4029 24.1495 40.0605 24.7012L40.1875 24.8164C40.5208 25.15 40.8335 25.4437 41.082 25.7129C41.3326 25.9842 41.5008 26.2137 41.5576 26.4102C41.585 26.505 41.5852 26.5884 41.5586 26.665C41.5317 26.7423 41.4748 26.8226 41.3711 26.9043C41.16 27.0706 40.7757 27.2292 40.1494 27.3779C38.906 27.6732 37.1506 27.7267 35.5967 27.4307C34.8202 27.2827 34.0989 27.0482 33.5186 26.7168C32.9383 26.3854 32.5047 25.9608 32.292 25.4336L32.2891 25.4258L32.2256 25.2979C32.2044 25.2551 32.1824 25.2125 32.1611 25.1699L31.9824 25.2588C32.0035 25.301 32.0247 25.344 32.0459 25.3867C32.0553 25.4058 32.0647 25.4253 32.0742 25.4443C31.9623 25.5427 31.8443 25.6857 31.7256 25.8555C31.5815 26.0616 31.4305 26.3144 31.2803 26.5908C30.981 27.1419 30.6819 27.7928 30.4463 28.3691C30.4011 28.4603 30.3564 28.585 30.3047 28.7197C30.2518 28.8574 30.1888 29.0136 30.1055 29.1797L30.0996 29.1934C30.0778 29.2588 30.0574 29.3218 30.0371 29.3779L29.9775 29.5215L29.9736 29.5303C29.3681 31.1301 29.3697 33.4965 29.4121 35.0293L29.415 35.126H36.6182V35.3535H36.1953L36.1924 35.4512C36.0869 39.2202 34.6497 41.7164 32.4033 43.2744C30.1513 44.8363 27.073 45.4638 23.6719 45.4639C20.4621 45.4639 17.5621 44.9004 15.3779 43.5176C13.1987 42.1378 11.7216 39.9368 11.3623 36.6377L11.3516 36.5381L11.252 36.5488C10.8613 36.5909 10.6307 36.5578 10.5049 36.4854C10.4455 36.4511 10.4089 36.408 10.3877 36.3564C10.3658 36.303 10.3579 36.2338 10.3662 36.1455C10.3831 35.9661 10.4659 35.7336 10.5928 35.4531C10.7188 35.1744 10.8821 34.8608 11.0537 34.5176L11.0547 34.5166C11.4029 33.7992 12.1459 33.2676 12.8916 32.8252C13.0768 32.7153 13.2613 32.6112 13.4385 32.5117C13.6152 32.4125 13.7858 32.3169 13.9414 32.2246C14.2492 32.0422 14.5146 31.8638 14.666 31.6777L14.6689 31.6748C14.7996 31.5008 14.8638 31.3222 14.7764 31.1787C14.7343 31.1098 14.666 31.066 14.5898 31.04C14.5135 31.014 14.4222 31.0029 14.3223 31.0029C13.926 31.0029 13.3122 31.1815 12.666 31.5264C11.999 31.882 11.6205 32.5287 11.1641 33.1953C10.7039 33.8674 10.1501 34.5873 9.12695 35.1514C8.63843 35.4105 8.08371 35.3801 7.51367 35.1738C6.9429 34.9672 6.36724 34.5879 5.85156 34.1699C5.33683 33.7527 4.88594 33.3005 4.56348 32.9521C4.40255 32.7783 4.27394 32.6305 4.18555 32.5264C4.17916 32.5188 4.17295 32.511 4.16699 32.5039C4.96789 32.3952 5.89865 31.8859 6.63281 31.3252C7.03151 31.0207 7.37799 30.6965 7.62109 30.4063C7.7425 30.2613 7.84039 30.1223 7.90527 29.9961C7.96863 29.8728 8.00783 29.7481 7.99316 29.6377C7.98378 29.5674 7.94612 29.512 7.89062 29.4746C7.83876 29.4397 7.7742 29.4222 7.70801 29.4141C7.57567 29.3978 7.40053 29.4151 7.20312 29.4512C6.80528 29.5239 6.27971 29.6816 5.74121 29.8604C5.20205 30.0394 4.64311 30.2419 4.17969 30.4033C3.9475 30.4842 3.73929 30.5544 3.56836 30.6074C3.39515 30.6611 3.26679 30.6947 3.19141 30.7041C2.89888 30.7405 2.3864 30.5456 1.90723 29.9414C1.43537 29.3464 1.00631 28.3639 0.875977 26.8613L0.87793 26.8594L0.875977 26.8262C0.773781 25.3275 1.78551 24.3643 2.85547 23.7686C3.3886 23.4717 3.92973 23.2708 4.33789 23.1436C4.5417 23.08 4.71202 23.0348 4.83105 23.0059C4.89049 22.9914 4.93715 22.9805 4.96875 22.9736V22.9727C4.97299 22.9762 4.97747 22.9802 4.98242 22.9844C5.01489 23.0116 5.06307 23.051 5.12402 23.1016C5.24605 23.2028 5.4209 23.3479 5.63379 23.5205C6.05953 23.8656 6.63648 24.3237 7.24023 24.7754C7.8434 25.2266 8.47568 25.6726 9.01172 25.9932C9.27952 26.1533 9.5267 26.2843 9.73535 26.3682C9.83939 26.41 9.9364 26.441 10.0234 26.458C10.1095 26.4748 10.1933 26.4793 10.2666 26.4609L10.2656 26.46C10.3433 26.4413 10.4091 26.3996 10.4443 26.3271C10.4771 26.2594 10.4752 26.1819 10.46 26.1094C10.4295 25.9652 10.3337 25.7859 10.2041 25.5918C9.94147 25.1986 9.50897 24.6984 9.05273 24.21C8.59548 23.7204 8.10967 23.2378 7.73926 22.8779C7.55419 22.6981 7.39748 22.5487 7.28711 22.4443C7.26015 22.4188 7.23603 22.3959 7.21484 22.376C7.56065 22.2109 8.0666 22.1044 8.64844 22.043C9.29782 21.9744 10.0285 21.9642 10.708 21.9854L10.751 21.9863L10.7812 21.9561C11.0801 21.6572 11.4196 21.3175 11.8008 20.9785L11.8047 20.9756C12.6747 20.1256 14.0294 19.808 15.3252 19.6104C15.9644 19.5129 16.6003 19.4427 17.1289 19.3516C17.6539 19.261 18.1078 19.1448 18.3955 18.9404C18.6785 18.7664 18.8381 18.5621 18.7949 18.3389C18.7741 18.2318 18.7081 18.1382 18.6182 18.0596C18.5279 17.9808 18.4074 17.9115 18.2656 17.8516C17.7715 17.643 16.9607 17.5268 16.0176 17.5732L15.6055 17.6035C14.4636 17.6923 13.6058 18.3975 12.6152 19.0986C11.6182 19.8044 10.4626 20.5286 8.69727 20.7178H8.69629C7.8404 20.8196 7.02515 20.4367 6.27637 19.7822C5.528 19.1281 4.8575 18.2127 4.29492 17.2783C3.73289 16.3448 3.28147 15.3973 2.9707 14.6826C2.8154 14.3254 2.69547 14.0266 2.61426 13.8174C2.594 13.7652 2.57688 13.7183 2.56152 13.6777C3.80754 14.0329 5.45402 13.8454 6.82617 13.459C7.55116 13.2548 8.20653 12.994 8.69336 12.7227C8.93655 12.5871 9.14076 12.4471 9.29102 12.3086C9.43872 12.1724 9.54597 12.0264 9.57324 11.877C9.60719 11.689 9.46419 11.5554 9.29395 11.4648C9.11591 11.3701 8.85788 11.2933 8.55176 11.2285C7.93713 11.0986 7.09484 11.011 6.2207 10.9443C5.346 10.8777 4.43159 10.8308 3.67676 10.7822C3.29882 10.7579 2.96068 10.7339 2.68555 10.7061C2.40822 10.6779 2.2021 10.6467 2.08398 10.6123L2.08008 10.6113L1.99121 10.584C1.7781 10.5066 1.5269 10.3338 1.27637 10.0537C0.991368 9.73507 0.711801 9.28245 0.49707 8.69043C0.0678703 7.50696 -0.103341 5.76758 0.447266 3.43652C0.98664 1.17438 2.94368 0.385909 4.80566 0.168945ZM17.4307 32.373C17.3485 33.3074 16.5711 34.2228 15.4707 34.9424L15.3965 34.9912L15.4268 35.0508V35.1719H20.5811L20.416 35.002C20.4069 34.9925 20.4022 34.9833 20.3916 34.9619C20.3808 34.9402 20.3639 34.9058 20.3301 34.8721L20.3193 34.8604L20.3047 34.8535L20.2686 34.8281C20.2565 34.8174 20.2434 34.8034 20.2285 34.7861C20.2029 34.7562 20.1652 34.7091 20.1221 34.665H20.123C20.0156 34.5354 19.9182 34.427 19.8389 34.3369C19.7581 34.2452 19.6982 34.1753 19.6602 34.1182H19.6611L19.6523 34.1074L19.1084 33.5127C18.92 33.3141 18.7277 33.1206 18.542 32.9482C18.3563 32.7759 18.1746 32.6235 18.0088 32.5078C17.8768 32.4158 17.7478 32.3437 17.6299 32.3057V32.126H17.4307V32.373ZM22.4365 21.4482C22.3427 21.5868 22.2967 21.7248 22.2549 21.8516C21.7613 23.1251 20.3131 23.9252 18.5293 24.3496L18.3916 24.3828L18.4688 24.502C19.2748 25.7425 19.073 27.176 18.6562 28.3164C18.4485 28.8849 18.1891 29.3753 17.9814 29.7236C17.8777 29.8977 17.7872 30.0363 17.7227 30.1309C17.6905 30.178 17.664 30.214 17.6465 30.2383L17.6221 30.2725L17.6211 30.2744H17.6201L17.5908 30.3135L17.6035 30.3623L17.6045 30.3633C17.6048 30.3644 17.6049 30.3661 17.6055 30.3682C17.6067 30.3723 17.609 30.3788 17.6113 30.3867C17.616 30.4025 17.6233 30.4255 17.6328 30.4551C17.652 30.5148 17.6808 30.6022 17.7217 30.7119C17.8035 30.9315 17.9315 31.2426 18.1172 31.6113C18.4422 32.2567 18.9449 33.0793 19.6855 33.8955L20.0176 34.2451L20.0225 34.249L20.0234 34.25C20.024 34.2505 20.0252 34.2509 20.0264 34.252C20.0288 34.2541 20.0322 34.2583 20.0371 34.2627C20.047 34.2716 20.062 34.285 20.0811 34.3027C20.1195 34.3385 20.1762 34.3921 20.2471 34.4629C20.3892 34.6048 20.5901 34.8158 20.8223 35.0908L20.8516 35.126H25.9443V35.0293C25.9869 34.0467 26.0192 32.6778 25.9336 31.2705C25.8481 29.8647 25.6443 28.413 25.2129 27.2686C25.1695 27.1423 25.1262 27.0132 25.041 26.7988L25.0391 26.7939L24.8955 26.4678C24.7667 26.1649 24.68 25.9277 24.6172 25.7383L24.6143 25.7305C24.2936 24.9607 23.8977 24.094 23.5068 23.3652C23.3114 23.0009 23.1164 22.6694 22.9316 22.4014C22.7747 22.1737 22.6197 21.9872 22.4756 21.8643C22.4801 21.8557 22.4862 21.8469 22.4912 21.8369C22.5255 21.7689 22.5702 21.6681 22.6143 21.5352L22.4365 21.4482ZM14.0674 24.8652C14.3232 25.5695 14.6124 26.2896 14.8877 26.8027C15.0247 27.058 15.1623 27.2706 15.2949 27.4033C15.361 27.4695 15.4332 27.523 15.5098 27.5479C15.5889 27.5735 15.6694 27.565 15.7432 27.5186L15.7441 27.5205C15.8854 27.4418 15.9388 27.2817 15.9502 27.1104C15.9617 26.9356 15.9329 26.7179 15.8789 26.4775C15.7706 25.9951 15.5548 25.3917 15.3203 24.7939L15.2949 24.7305H14.0186L14.0674 24.8652Z" fill="var(--fill-0, #DBEDE5)" stroke="var(--stroke-0, #054742)" stroke-width="0.2"/>
<path id="Vector_2" d="M35.125 61.897C34.9995 65.4257 32.0584 68.2416 28.5303 68.2417H19.1494C15.6216 68.2415 12.7234 65.4678 12.5547 61.938L11.3652 36.9556L36.1855 35.8989L35.125 61.897Z" fill="var(--fill-0, #DBEDE5)" stroke="var(--stroke-0, #054742)" stroke-width="0.2"/>
</g>
</svg>
