<svg preserveAspectRatio="none" width="100%" height="100%" overflow="visible" style="display: block;" viewBox="0 0 82.8853 16" fill="none" xmlns="http://www.w3.org/2000/svg">
<g id="Ethos-Logo-Cypress" clip-path="url(#clip0_0_1143)">
<path id="Vector" d="M11.6369 0.200361V3.32172H3.07416V6.44308H10.5316V9.53624H3.07416V12.6852H11.6369V15.7784H0V0.200361H11.6369Z" fill="var(--fill-0, #056257)"/>
<path id="Vector_2" d="M46.3605 9.53624V6.44308V3.32172V0.200361H43.2863V6.44308H36.3666V3.32172V0.200361H33.2924V15.7784H36.3666V12.6852V9.53624H43.2863V15.7784H46.3605V12.6852V9.53624Z" fill="var(--fill-0, #056257)"/>
<path id="Vector_3" d="M23.9934 15.7784H20.9181V3.32172H15.9298V0.200361H28.9805V3.32172H23.9922V6.44308V15.7784" fill="var(--fill-0, #056257)"/>
<path id="Vector_4" d="M82.5756 2.7328L80.2159 4.63256C80.2159 4.63256 79.106 2.86291 76.3565 2.86291C73.607 2.86291 73.7768 4.58248 73.7768 4.58248C73.7768 4.58248 73.6968 5.40225 74.6266 5.79257C75.5563 6.18231 77.5343 6.49778 78.4963 6.7626C79.2746 6.97675 80.4611 7.26977 81.3857 7.98362C82.3845 8.75504 82.8848 9.57597 82.8848 11.1522C82.8848 12.942 81.9257 13.9218 81.9257 13.9218C81.9257 13.9218 80.4156 16 76.8366 16C73.2576 16 71.4373 14.3714 71.4373 14.3714C71.4373 14.3714 70.4275 13.6317 69.7476 12.6415L72.3129 10.8114C72.3129 10.8114 73.4786 13.0773 76.8228 13.0773C80.1669 13.0773 79.559 11.0284 79.559 11.0284C79.559 11.0284 79.3823 10.2576 78.2344 9.93519C77.1388 9.62778 76.836 9.63411 74.2742 8.99395C71.0694 8.19375 70.477 5.90598 70.4811 4.75921C70.4845 3.73104 70.781 2.39142 72.3751 1.14391C73.9703 -0.104169 76.5488 0.0034837 76.5488 0.0034837C76.5488 0.0034837 80.0368 -0.210671 82.5756 2.7328Z" fill="var(--fill-0, #056257)"/>
<g id="O">
<path id="Vector_5" d="M55.203 11.2063C53.028 9.03135 51.6959 5.03092 54.1506 0.801937L53.0033 1.94928C49.8399 5.11266 49.8399 10.242 53.0033 13.4054C56.1673 16.5694 61.296 16.5694 64.46 13.4054L65.6073 12.2581C61.5798 14.5994 57.5719 13.5752 55.203 11.2063Z" fill="var(--fill-0, #056257)"/>
<path id="Vector_6" d="M64.5872 1.82205C62.4261 -0.339641 58.9213 -0.339641 56.7591 1.82205C56.4465 2.13465 55.7959 2.86635 55.5737 3.22672C57.7072 1.91129 60.5378 2.17265 62.3869 4.02232C64.2286 5.86394 64.4957 8.67731 63.1992 10.8079L63.5245 10.5609C63.8826 10.3007 64.3299 9.9087 64.5878 9.65079C66.7495 7.48909 66.7495 3.9849 64.5878 1.82263L64.5872 1.82205Z" fill="var(--fill-0, #056257)"/>
</g>
</g>
<defs>
<clipPath id="clip0_0_1143">
<rect width="82.8853" height="16" fill="white"/>
</clipPath>
</defs>
</svg>
