<svg preserveAspectRatio="none" width="100%" height="100%" overflow="visible" style="display: block;" viewBox="0 0 22.8809 22.2114" fill="none" xmlns="http://www.w3.org/2000/svg">
<g id="Group">
<g id="Vector">
<path d="M15.4562 2.28743C15.7714 3.19312 16.2003 4.21664 17.1169 4.50163C17.5252 4.62906 17.9691 4.5811 18.387 4.67565C19.2941 4.87843 19.9436 5.73205 20.171 6.63363C20.3985 7.5352 20.2806 8.48336 20.1409 9.40275C21.5206 9.31095 22.7374 10.6277 22.7976 12.0088C22.8579 13.39 21.9618 14.6903 20.7794 15.4055C21.0068 17.1264 19.9066 18.9309 18.2733 19.5174C17.5704 19.7695 16.7579 19.8366 16.2194 20.3532C15.9605 20.6026 15.7947 20.9314 15.5919 21.2274C15.3891 21.5247 15.1206 21.8083 14.7698 21.885C14.419 21.9618 13.9888 21.7398 13.9641 21.3822" fill="var(--fill-0, #DBECE4)"/>
<path d="M15.4562 2.28743C15.7714 3.19312 16.2003 4.21664 17.1169 4.50163C17.5252 4.62906 17.9691 4.5811 18.387 4.67565C19.2941 4.87843 19.9436 5.73205 20.171 6.63363C20.3985 7.5352 20.2806 8.48336 20.1409 9.40275C21.5206 9.31095 22.7374 10.6277 22.7976 12.0088C22.8579 13.39 21.9618 14.6903 20.7794 15.4055C21.0068 17.1264 19.9066 18.9309 18.2733 19.5174C17.5704 19.7695 16.7579 19.8366 16.2194 20.3532C15.9605 20.6026 15.7947 20.9314 15.5919 21.2274C15.3891 21.5247 15.1206 21.8083 14.7698 21.885C14.419 21.9618 13.9888 21.7398 13.9641 21.3822" stroke="var(--stroke-0, #054742)" stroke-width="0.160682" stroke-linecap="round" stroke-linejoin="round"/>
</g>
<path id="Vector_2" d="M17.5295 3.57707C16.2416 1.43138 15.1208 2.4412 14.2781 1.11213C13.5259 -0.0744394 10.976 0.39005 9.83875 1.21489L9.84286 1.22586C9.53183 1.04088 9.2208 0.86002 8.89881 0.696969C7.80541 0.142048 6.46812 -0.188163 5.37335 0.365387C4.58824 0.762738 4.06347 1.54785 3.30028 1.9863C2.21373 2.60836 0.731209 2.47271 0.207803 4.07445C0.0269398 4.628 0.042001 5.23499 0.231085 5.78717C0.97509 7.963 3.67571 8.83307 5.61588 7.88628C5.65561 8.25485 5.29389 9.07696 5.68576 10.2416C5.81044 10.6143 5.85703 11.1815 6.43935 11.1911C7.01757 10.4691 7.96162 10.1799 8.73851 10.6814C9.5154 11.1829 9.81683 12.3023 9.39755 13.1258C9.1016 13.7081 8.42473 14.2357 7.74923 14.3795C7.11347 14.5152 6.66543 15.1304 6.74079 15.7744C6.84081 16.6198 8.24661 16.9322 8.88374 17.6296C9.87438 18.7148 12.0406 19.1683 13.4999 19.3368C14.9344 19.5026 14.7618 19.5163 15.5921 18.3352C15.8497 17.968 16.032 17.6077 16.1566 17.2322C17.2295 14.8331 17.6008 11.9351 17.9324 9.3784C18.1132 7.98493 18.2023 4.70062 17.5268 3.57571L17.5295 3.57707Z" fill="var(--fill-0, #DBECE4)" stroke="var(--stroke-0, #054742)" stroke-width="0.160682" stroke-linecap="round" stroke-linejoin="round"/>
<g id="Vector_3">
<path d="M16.1125 19.8397C15.6946 20.1315 15.5055 20.8701 15.3233 21.6223C15.1547 22.0511 14.5971 22.2128 14.1532 22.0923C13.7092 21.9703 13.3543 21.6442 13.0214 21.325C12.6884 21.0057 12.3404 20.6741 11.8992 20.5412C11.0004 20.2686 9.9015 20.8673 9.14653 20.311C8.45871 19.8041 8.54913 18.6545 7.87364 18.1311C7.51465 17.8529 7.01592 17.8173 6.65008 17.5474C5.96773 17.0432 6.08007 15.9169 6.65418 15.2907C6.73639 15.2003 6.8556 15.0071 6.94877 14.9317" fill="var(--fill-0, #DBECE4)"/>
<path d="M16.1125 19.8397C15.6946 20.1315 15.5055 20.8701 15.3233 21.6223C15.1547 22.0511 14.5971 22.2128 14.1532 22.0923C13.7092 21.9703 13.3543 21.6442 13.0214 21.325C12.6884 21.0057 12.3404 20.6741 11.8992 20.5412C11.0004 20.2686 9.9015 20.8673 9.14653 20.311C8.45871 19.8041 8.54913 18.6545 7.87364 18.1311C7.51465 17.8529 7.01592 17.8173 6.65008 17.5474C5.96773 17.0432 6.08007 15.9169 6.65418 15.2907C6.73639 15.2003 6.8556 15.0071 6.94877 14.9317" stroke="var(--stroke-0, #054742)" stroke-width="0.160682" stroke-linecap="round" stroke-linejoin="round"/>
</g>
<path id="Vector_4" d="M17.4683 4.37063L12.6877 7.47682C12.6877 7.47682 9.90489 16.8543 11.83 18.134C13.7551 19.4138 14.9937 19.596 14.9937 19.596L17.6519 15.1786L18.8151 5.89427L17.8766 4.61315L17.4696 4.372L17.4683 4.37063Z" fill="var(--fill-0, #DBECE4)"/>
<g id="Vector_5">
<path d="M18.5045 15.4094C18.9841 13.8364 18.9416 12.1566 18.2551 10.3438Z" fill="var(--fill-0, #DBECE4)"/>
<path d="M18.5045 15.4094C18.9841 13.8364 18.9416 12.1566 18.2551 10.3438" stroke="var(--stroke-0, #054742)" stroke-width="0.160682" stroke-linecap="round" stroke-linejoin="round"/>
</g>
<g id="Vector_6">
<path d="M18.8253 15.1768C19.7844 14.6849 20.4654 13.9477 20.5133 12.6515Z" fill="var(--fill-0, #DBECE4)"/>
<path d="M18.8253 15.1768C19.7844 14.6849 20.4654 13.9477 20.5133 12.6515" stroke="var(--stroke-0, #054742)" stroke-width="0.160682" stroke-linecap="round" stroke-linejoin="round"/>
</g>
<g id="Vector_7">
<path d="M8.27264 7.08112C8.62477 9.59813 10.3087 10.808 13.023 11.0094C13.0724 13.1935 14.5946 14.9624 17.3939 16.3709" fill="var(--fill-0, #DBECE4)"/>
<path d="M8.27264 7.08112C8.62477 9.59813 10.3087 10.808 13.023 11.0094C13.0724 13.1935 14.5946 14.9624 17.3939 16.3709" stroke="var(--stroke-0, #054742)" stroke-width="0.160682" stroke-linecap="round" stroke-linejoin="round"/>
</g>
<g id="Vector_8">
<path d="M9.34026 17.1282C10.72 17.6612 12.0395 17.579 13.296 16.8843C14.3798 17.2159 15.5252 17.2748 16.7173 17.1282" fill="var(--fill-0, #DBECE4)"/>
<path d="M9.34026 17.1282C10.72 17.6612 12.0395 17.579 13.296 16.8843C14.3798 17.2159 15.5252 17.2748 16.7173 17.1282" stroke="var(--stroke-0, #054742)" stroke-width="0.160682" stroke-linecap="round" stroke-linejoin="round"/>
</g>
<g id="Vector_9">
<path d="M17.0062 16.7826C15.1277 16.7141 13.789 15.7193 12.6819 14.3272Z" fill="var(--fill-0, #DBECE4)"/>
<path d="M17.0062 16.7826C15.1277 16.7141 13.789 15.7193 12.6819 14.3272" stroke="var(--stroke-0, #054742)" stroke-width="0.160682" stroke-linecap="round" stroke-linejoin="round"/>
</g>
<g id="Vector_10">
<path d="M15.8917 18.5305C15.182 19.4184 13.8282 19.7143 11.8292 19.4184Z" fill="var(--fill-0, #DBECE4)"/>
<path d="M15.8917 18.5305C15.182 19.4184 13.8282 19.7143 11.8292 19.4184" stroke="var(--stroke-0, #054742)" stroke-width="0.160682" stroke-linecap="round" stroke-linejoin="round"/>
</g>
</g>
</svg>
