<svg preserveAspectRatio="none" width="100%" height="100%" overflow="visible" style="display: block;" viewBox="0 0 15.3471 23.6196" fill="none" xmlns="http://www.w3.org/2000/svg">
<g id="Group">
<path id="Vector" d="M11.3461 11.4779C11.157 9.71312 10.9487 7.94696 10.7199 6.18081C10.5076 4.54482 10.5103 1.81817 9.04558 0.693261C8.42215 0.2137 7.70145 0.0711975 7.03417 0.0807887C6.89441 0.0835291 6.75739 0.0917478 6.62038 0.104079C5.79964 0.183549 5.02412 0.449365 4.25682 0.713809C4.00334 0.8015 3.72657 0.913857 3.64025 1.21393C3.26893 2.51285 4.51853 5.10796 4.9241 6.46991C5.42832 8.16345 5.92979 9.85836 6.43539 11.5519C5.79826 12.4466 5.32692 13.4852 4.84325 14.4882C4.81173 14.5526 4.78023 14.6183 4.74871 14.6827C3.82933 16.5654 3.02367 18.2726 1.41371 19.6661C1.08761 19.9483 0.740959 20.2141 0.473775 20.5567C-0.223644 21.4541 0.105192 22.4749 1.32465 22.2434C3.495 21.8296 5.53382 20.78 7.1561 19.2591C7.97684 18.4905 8.51807 18.0205 9.60325 17.6478C10.6857 17.2737 11.8353 17.0518 12.8218 16.4379C13.1164 16.2543 13.4 16.0269 13.5493 15.7076C13.9741 14.8047 13.2013 13.5523 12.619 12.8892C12.1997 12.411 11.7531 11.9671 11.3489 11.482L11.3461 11.4779Z" fill="var(--fill-0, white)" stroke="var(--stroke-0, #054742)" stroke-width="0.160682" stroke-linecap="round" stroke-linejoin="round"/>
<path id="Vector_2" d="M2.72968 21.8761C2.54882 21.935 2.35014 21.8459 2.26108 21.6623C2.14187 21.4157 2.02404 21.1677 1.91853 20.9142C1.74589 20.499 1.59517 20.0743 1.45678 19.6468C1.40746 19.4947 1.44857 19.3316 1.55408 19.2261C2.50361 18.278 3.14622 17.1887 3.7121 16.0021C3.81076 15.7938 4.06012 15.7281 4.25194 15.8582C5.03157 16.3912 5.77832 16.9681 6.41134 17.6806C6.67441 17.9752 6.91009 18.2917 7.13617 18.615C7.25263 18.7822 7.23619 19.0096 7.10054 19.1467C7.10054 19.1467 7.09917 19.148 7.0978 19.1494C5.85916 20.4045 4.35882 21.3389 2.72968 21.8761Z" fill="var(--fill-0, #82B0AB)" stroke="var(--stroke-0, #054742)" stroke-width="0.160682" stroke-linecap="round" stroke-linejoin="round"/>
<path id="Vector_3" d="M14.409 16.3119L9.83245 17.6936L10.6902 20.5347L15.2667 19.153L14.409 16.3119Z" fill="var(--fill-0, #054742)" stroke="var(--stroke-0, #054742)" stroke-width="0.160682" stroke-linecap="round" stroke-linejoin="round"/>
<path id="Vector_4" d="M2.65002 23.0504C3.38717 22.8284 4.1202 22.564 4.82858 22.2105C5.64384 21.8035 6.26316 21.2541 6.86466 20.7225C7.19898 20.4265 7.5155 20.1456 7.86764 19.8853C8.12797 19.6935 8.39652 19.5126 8.68014 19.3235C9.81328 18.5672 11.2328 18.0725 12.6057 17.5944C13.1469 17.4066 13.7073 17.2107 14.2376 17.0038C14.5897 16.8668 14.7637 16.4653 14.6253 16.1091C14.4869 15.7528 14.0869 15.5775 13.7361 15.7131C13.2291 15.9118 12.7071 16.094 12.1522 16.2872C10.6998 16.7928 9.19671 17.3162 7.92108 18.1684C7.63471 18.3589 7.34011 18.5562 7.05238 18.7686C6.65365 19.0645 6.30015 19.3769 5.95761 19.6811C5.39858 20.1758 4.87106 20.643 4.21612 20.9705C3.0871 21.5336 1.81969 21.8597 0.593388 22.1762C0.226181 22.2694 0.00694288 22.6475 0.102855 23.0175C0.198767 23.3874 0.572823 23.6122 0.94003 23.5176C1.50591 23.3724 2.08001 23.2244 2.65275 23.0518L2.65002 23.0504Z" fill="var(--fill-0, #054742)" stroke="var(--stroke-0, #054742)" stroke-width="0.160682" stroke-linecap="round" stroke-linejoin="round"/>
</g>
</svg>
