<svg preserveAspectRatio="none" width="100%" height="100%" overflow="visible" style="display: block;" viewBox="0 0 58.4558 68.3516" fill="none" xmlns="http://www.w3.org/2000/svg">
<g id="Group">
<path id="Vector" d="M29.6501 0.514914V64.598" stroke="var(--stroke-0, #F4F4F4)" stroke-width="1.02837" stroke-miterlimit="10"/>
<g id="Group_2">
<path id="Vector_2" d="M2.01467 64.5972H57.2848L57.2848 0.514182H2.01467L2.01467 64.5972Z" stroke="var(--stroke-0, #F4F4F4)" stroke-width="1.02837" stroke-miterlimit="10"/>
<path id="Vector_3" d="M57.2848 32.5568H2.01338" stroke="var(--stroke-0, #F4F4F4)" stroke-width="1.02837" stroke-miterlimit="10"/>
</g>
<path id="Vector_4" d="M0 68.3516L58.4558 68.3516V64.5973H0V68.3516Z" fill="var(--fill-0, #F4F4F4)"/>
<path id="Vector_5" d="M42.5982 21.428C46.9744 21.428 50.5219 17.8805 50.5219 13.5043C50.5219 9.12816 46.9744 5.58059 42.5982 5.58059C38.2221 5.58059 34.6745 9.12816 34.6745 13.5043C34.6745 17.8805 38.2221 21.428 42.5982 21.428Z" fill="var(--fill-0, #F4F4F4)"/>
<g id="Group_3">
<path id="Vector_6" d="M6.72288 51.0721C6.79824 50.9515 6.90785 50.861 7.03528 50.7966C7.20107 50.7131 7.39426 50.6747 7.58061 50.6857C7.90945 50.7048 8.21774 50.8446 8.50685 51.0008C9.54407 51.5557 10.4525 52.3217 11.2431 53.1876C11.9528 53.9659 12.5708 54.8236 13.1367 55.7101C13.1394 55.7156 13.1421 55.7197 13.1463 55.7252H13.2148C12.8393 54.9702 12.5708 54.1591 12.3091 53.3548C12.0172 52.4628 11.7254 51.5694 11.5199 50.6528C11.291 49.6361 11.2006 48.4687 11.8432 47.648C11.9693 47.4863 12.1241 47.3424 12.3091 47.2575C12.6557 47.0985 13.0736 47.1629 13.408 47.3465C14.004 47.674 14.3534 48.318 14.5891 48.9551C15.033 50.1527 15.1919 51.4379 15.2495 52.7135C15.2906 53.6302 15.2782 54.5591 15.1289 55.4662C15.4249 54.8784 15.7797 54.3194 16.1223 53.759C16.6662 52.8711 17.1896 51.9586 17.909 51.2063C18.6283 50.4541 19.5833 49.8677 20.6233 49.8238C21.0426 49.806 21.5002 49.9143 21.8304 50.1554H21.8318C22.0209 50.2938 22.1702 50.4747 22.2456 50.7021C22.4347 51.2776 22.0935 51.8873 21.7057 52.3532C20.8809 53.3465 19.8026 54.0974 18.69 54.7523C18.3077 54.9771 17.9186 55.1935 17.5527 55.4443C17.4226 55.5347 17.2951 55.6293 17.1677 55.7238H19.6381C19.6381 55.7238 19.8642 57.2008 19.6464 58.956C19.6436 58.978 19.6409 59.0013 19.6381 59.0245C19.5765 59.5 19.4819 59.9946 19.3408 60.4824C19.3353 60.5043 19.3271 60.5276 19.3189 60.5482C19.2655 60.7373 19.2024 60.925 19.1298 61.1141C19.1216 61.136 19.1134 61.1565 19.1065 61.1798C18.3707 63.0529 16.8348 64.6888 13.719 64.6888C11.0252 64.6888 9.59613 63.0556 8.84528 61.1798C8.83432 61.1579 8.8261 61.1346 8.81925 61.1141C8.74526 60.9277 8.67812 60.74 8.61783 60.5482C8.60961 60.5263 8.60413 60.5057 8.59591 60.4824C8.38079 59.7918 8.2424 59.0931 8.15745 58.4504C8.15471 58.4244 8.15197 58.397 8.14649 58.3737C7.95741 56.8857 8.03962 55.7224 8.03962 55.7224H10.6964C9.73589 55.0963 8.80006 54.4317 7.89575 53.7275C7.54498 53.4548 7.19285 53.1684 6.94759 52.7971C6.72973 52.4683 6.60504 52.0791 6.58997 51.6859C6.58175 51.4735 6.60778 51.2502 6.72151 51.0707L6.72288 51.0721Z" fill="var(--fill-0, #F4F4F4)"/>
<g id="Group_4">
<path id="Vector_7" d="M17.5028 44.3756L15.0036 55.7234" stroke="var(--stroke-0, #F4F4F4)" stroke-width="0.0964093" stroke-miterlimit="10"/>
<g id="Group_5">
<path id="Vector_8" d="M16.1007 43.3317C16.2199 43.5564 16.3597 43.7783 16.5241 43.9702C16.5488 44.0017 16.5734 44.0291 16.6036 44.0578C16.6036 44.0606 16.6063 44.0606 16.6063 44.0606C16.7488 44.2182 16.916 44.3538 17.1078 44.4511C17.1105 44.4538 17.116 44.4566 17.1188 44.4593C17.1379 44.4689 17.1544 44.4771 17.1722 44.484C17.2421 44.5196 17.3147 44.5456 17.3901 44.5676C17.4147 44.5744 17.4353 44.5799 17.4572 44.584C17.6024 44.6224 17.7518 44.6415 17.8998 44.6415H17.9025C17.934 44.6429 17.9642 44.6415 17.9957 44.6415C18.3067 44.632 18.615 44.5552 18.8973 44.4278C19.4549 44.1771 19.918 43.7509 20.3373 43.3043C20.5894 43.033 22.4638 40.653 21.4102 40.6447C21.2101 40.6434 21.0142 40.7448 20.8155 40.7352H20.8018C20.7799 40.7338 20.7621 40.7311 20.7429 40.727C20.3428 40.6598 20.1153 40.183 19.7344 40.0117C19.5727 39.9391 19.4028 39.9268 19.2247 39.9446C19.2014 39.9446 19.174 39.9487 19.1507 39.9501C18.6904 40.0172 18.2012 40.2584 17.7888 40.1707C17.7641 40.1666 17.7436 40.1611 17.7216 40.1542C17.649 40.1323 17.5819 40.1008 17.5161 40.0515C17.2654 39.8706 17.1626 39.5308 16.9078 39.3609C16.7968 39.2869 16.668 39.254 16.5378 39.2581C16.5159 39.2568 16.4953 39.2581 16.472 39.2609C16.2597 39.2787 16.0473 39.3828 15.8993 39.539C15.6445 39.8076 15.5417 40.1885 15.5033 40.5557C15.3978 41.5107 15.6458 42.4835 16.0994 43.333L16.1007 43.3317Z" fill="var(--fill-0, #F4F4F4)"/>
<path id="Vector_9" d="M17.9022 44.6421C17.9338 44.6435 17.9639 44.6421 17.9954 44.6421C19.1354 43.5062 20.1 42.1717 20.8166 40.7357H20.8029C20.781 40.7344 20.7632 40.7316 20.744 40.7275C20.026 42.1662 19.0491 43.5062 17.9022 44.6421Z" fill="var(--fill-0, #F4F4F4)"/>
<path id="Vector_10" d="M17.3903 44.5677C17.4149 44.5746 17.4355 44.58 17.4574 44.5841L19.2263 39.9447C19.203 39.9447 19.1756 39.9488 19.1523 39.9502L17.3903 44.5677Z" fill="var(--fill-0, #F4F4F4)"/>
<path id="Vector_11" d="M17.1075 44.4515C17.1075 44.4515 17.1157 44.457 17.1185 44.4598C17.1377 44.4694 17.1541 44.4776 17.1719 44.4844C17.3158 43.0416 17.5227 41.5947 17.7899 40.1711C17.7652 40.167 17.7447 40.1615 17.7227 40.1547C17.4555 41.5714 17.2514 43.0156 17.1062 44.4529L17.1075 44.4515Z" fill="var(--fill-0, #F4F4F4)"/>
<path id="Vector_12" d="M16.5245 43.9702C16.5491 44.0017 16.5738 44.0291 16.604 44.0578C16.371 42.4684 16.3505 40.8558 16.5396 39.2581C16.5176 39.2568 16.4971 39.2581 16.4738 39.2609C16.2888 40.8297 16.3025 42.4068 16.5245 43.9715V43.9702Z" fill="var(--fill-0, #F4F4F4)"/>
</g>
<path id="Vector_13" d="M17.8526 44.6432C17.8526 44.6432 17.5964 45.1721 17.2881 45.3489C17.2881 45.3489 17.0894 44.7295 17.073 44.4322L17.8526 44.6432Z" fill="var(--fill-0, #F4F4F4)"/>
</g>
<g id="Group_6">
<path id="Vector_14" d="M9.94309 45.5496L13.1438 55.7519" stroke="var(--stroke-0, #F4F4F4)" stroke-width="0.0964093" stroke-miterlimit="10"/>
<g id="Group_7">
<path id="Vector_15" d="M8.34503 45.3583C8.54234 45.483 8.75608 45.5967 8.97531 45.6735C9.00956 45.6872 9.04245 45.6981 9.07944 45.7077C9.07944 45.7104 9.08218 45.7077 9.08218 45.7077C9.26853 45.768 9.46309 45.8009 9.66177 45.7899C9.66451 45.7899 9.66999 45.7899 9.6741 45.7899C9.69328 45.7899 9.70972 45.7872 9.72891 45.7844C9.80153 45.7803 9.8714 45.768 9.94128 45.7516C9.96321 45.7461 9.98376 45.7406 10.0029 45.7337C10.1358 45.6981 10.2646 45.6447 10.3825 45.5775H10.3852C10.4113 45.5625 10.4345 45.5488 10.4592 45.5337C10.7031 45.3843 10.9141 45.1816 11.0813 44.95C11.4115 44.4937 11.5855 43.9415 11.717 43.3935C11.7938 43.0619 12.2007 40.3037 11.3567 40.7792C11.1964 40.8696 11.0867 41.0395 10.9223 41.1231L10.9114 41.13C10.8936 41.1382 10.8771 41.145 10.8607 41.1505C10.5099 41.2807 10.1098 41.0039 9.72891 41.0409C9.56723 41.0573 9.42473 41.1245 9.29182 41.2218C9.27264 41.2327 9.25346 41.2478 9.23427 41.2601C8.89721 41.5246 8.6177 41.9411 8.24775 42.0589C8.22583 42.0658 8.20664 42.0726 8.18609 42.0767C8.11895 42.0932 8.04907 42.0973 7.97508 42.0891C7.69283 42.0589 7.45442 41.8356 7.17353 41.8164C7.05159 41.8082 6.93375 41.8411 6.83099 41.9041C6.81318 41.9123 6.79673 41.9219 6.77892 41.9356C6.61724 42.0466 6.49666 42.2275 6.44871 42.4207C6.36787 42.7509 6.46104 43.1016 6.59806 43.414C6.95019 44.2252 7.59417 44.8883 8.3464 45.3583H8.34503Z" fill="var(--fill-0, #F4F4F4)"/>
<path id="Vector_16" d="M10.3836 45.5786C10.4096 45.5649 10.4329 45.5512 10.4576 45.5361C10.8467 44.1084 11.007 42.5999 10.9207 41.1269L10.9097 41.1338C10.8919 41.142 10.8755 41.1488 10.859 41.1543C10.944 42.6314 10.7796 44.1482 10.3836 45.5814V45.5786Z" fill="var(--fill-0, #F4F4F4)"/>
<path id="Vector_17" d="M9.94109 45.7542C9.96301 45.7487 9.98357 45.7432 10.0027 45.7364L9.29163 41.223C9.27245 41.234 9.25326 41.2491 9.23408 41.2614L9.94109 45.7542Z" fill="var(--fill-0, #F4F4F4)"/>
<path id="Vector_18" d="M9.66186 45.7913C9.66186 45.7913 9.67008 45.7913 9.67419 45.7913C9.69337 45.7913 9.70982 45.7886 9.729 45.7858C9.18367 44.5691 8.6863 43.3182 8.24784 42.059C8.22592 42.0658 8.20673 42.0727 8.18618 42.0768C8.6219 43.3305 9.11927 44.576 9.66186 45.79V45.7913Z" fill="var(--fill-0, #F4F4F4)"/>
<path id="Vector_19" d="M8.97461 45.6731C9.00887 45.6868 9.04175 45.6977 9.07875 45.7073C8.16484 44.544 7.40987 43.267 6.83029 41.9051C6.81248 41.9133 6.79604 41.9229 6.77822 41.9366C7.34822 43.2739 8.08263 44.5262 8.97461 45.6731Z" fill="var(--fill-0, #F4F4F4)"/>
</g>
<path id="Vector_20" d="M10.345 45.6034C10.345 45.6034 10.3834 46.1419 10.2176 46.4256C10.2176 46.4256 9.77504 46.0214 9.62569 45.7925L10.345 45.6034Z" fill="var(--fill-0, #F4F4F4)"/>
</g>
</g>
</g>
</svg>
