<svg preserveAspectRatio="none" width="100%" height="100%" overflow="visible" style="display: block;" viewBox="0 0 12.0989 15.6115" fill="none" xmlns="http://www.w3.org/2000/svg">
<path id="Vector" d="M6.11449 0C3.51258 0 1.43105 2.08153 1.43105 4.68344V6.24459H1.30096C0.650478 6.24459 0 6.76497 0 7.54554V14.3105C0 14.961 0.520382 15.6115 1.30096 15.6115H10.7979C11.4484 15.6115 12.0989 15.0911 12.0989 14.3105V7.54554C12.0989 6.89506 11.5785 6.24459 10.7979 6.24459V4.68344C10.7979 1.95143 8.7164 0 6.11449 0ZM8.7164 6.24459H3.38248V4.68344C3.38248 3.25239 4.55334 2.08153 5.98439 2.08153C7.41545 2.08153 8.58631 3.25239 8.58631 4.68344L8.7164 6.24459Z" fill="var(--fill-0, #054742)"/>
</svg>
