<svg preserveAspectRatio="none" width="100%" height="100%" overflow="visible" style="display: block;" viewBox="0 0 13.3333 13.3333" fill="none" xmlns="http://www.w3.org/2000/svg">
<path id="Vector" d="M6.66667 1.66667C7.58333 1.66667 8.33333 2.41667 8.33333 3.33333C8.33333 4.25 7.58333 5 6.66667 5C5.75 5 5 4.25 5 3.33333C5 2.41667 5.75 1.66667 6.66667 1.66667ZM6.66667 9.16667C8.91667 9.16667 11.5 10.2417 11.6667 10.8333V11.6667H1.66667V10.8417C1.83333 10.2417 4.41667 9.16667 6.66667 9.16667ZM6.66667 0C4.825 0 3.33333 1.49167 3.33333 3.33333C3.33333 5.175 4.825 6.66667 6.66667 6.66667C8.50833 6.66667 10 5.175 10 3.33333C10 1.49167 8.50833 0 6.66667 0ZM6.66667 7.5C4.44167 7.5 0 8.61667 0 10.8333V13.3333H13.3333V10.8333C13.3333 8.61667 8.89167 7.5 6.66667 7.5Z" fill="var(--fill-0, #525252)"/>
</svg>
