<svg preserveAspectRatio="none" width="100%" height="100%" overflow="visible" style="display: block;" viewBox="0 0 13.5297 21.0394" fill="none" xmlns="http://www.w3.org/2000/svg">
<g id="Group">
<g id="Vector">
<path d="M5.39301 2.21682C6.8728 2.35657 8.1087 3.78704 8.03197 5.27094C9.08152 4.93113 10.3188 5.26545 11.0532 6.08893C11.7876 6.9124 11.9808 8.17845 11.5232 9.18415C11.2724 9.73633 10.834 10.2529 10.871 10.8599C10.9176 11.6121 11.6547 12.1013 12.0699 12.7315C12.7097 13.7016 12.4823 15.143 11.5766 15.8706C11.2532 16.1296 10.849 16.3187 10.649 16.6817C10.3695 17.1873 10.5928 17.8067 10.6216 18.3835C10.6833 19.6167 9.6707 20.8087 8.44302 20.9444C7.35921 21.0649 6.2891 20.4278 5.65882 19.5372C5.02854 18.6466 5.67252 17.1298 5.58072 16.0419C4.71614 16.4146 3.65014 16.0994 3.00342 15.4157C2.35669 14.732 2.095 13.7468 2.14296 12.8055C2.19092 11.8656 2.5225 10.9613 2.93218 10.1131C2.68966 10.1611 2.12241 11.0174 1.44006 10.1775C1.28386 9.98571 1.32222 9.69934 1.3277 9.45133C1.39483 6.94666 3.17196 3.67742 5.22585 2.24148" fill="var(--fill-0, #DBECE4)"/>
<path d="M5.39301 2.21682C6.8728 2.35657 8.1087 3.78704 8.03197 5.27094C9.08152 4.93113 10.3188 5.26545 11.0532 6.08893C11.7876 6.9124 11.9808 8.17845 11.5232 9.18415C11.2724 9.73633 10.834 10.2529 10.871 10.8599C10.9176 11.6121 11.6547 12.1013 12.0699 12.7315C12.7097 13.7016 12.4823 15.143 11.5766 15.8706C11.2532 16.1296 10.849 16.3187 10.649 16.6817C10.3695 17.1873 10.5928 17.8067 10.6216 18.3835C10.6833 19.6167 9.6707 20.8087 8.44302 20.9444C7.35921 21.0649 6.2891 20.4278 5.65882 19.5372C5.02854 18.6466 5.67252 17.1298 5.58072 16.0419C4.71614 16.4146 3.65014 16.0994 3.00342 15.4157C2.35669 14.732 2.095 13.7468 2.14296 12.8055C2.19092 11.8656 2.5225 10.9613 2.93218 10.1131C2.68966 10.1611 2.12241 11.0174 1.44006 10.1775C1.28386 9.98571 1.32222 9.69934 1.3277 9.45133C1.39483 6.94666 3.17196 3.67742 5.22585 2.24148" stroke="var(--stroke-0, #054742)" stroke-width="0.160682" stroke-linecap="round" stroke-linejoin="round"/>
</g>
<g id="Group_2">
<g id="Vector_2">
<path d="M0.0817181 4.5266C0.639379 5.2843 1.46148 5.84471 2.3699 6.08723C2.75766 5.3213 3.14954 4.54989 3.6798 3.8744C4.21143 3.20027 4.89788 2.62069 5.71588 2.36035C5.78164 2.00548 5.64051 1.6369 5.41991 1.35191C5.19794 1.06691 4.90337 0.850422 4.61152 0.636675C4.23473 0.36264 3.82367 0.0762741 3.35781 0.0803847C2.86044 0.0858654 2.43157 0.422927 2.0904 0.786024C1.16964 1.7657 0.206403 3.18794 0.0803466 4.5266" fill="var(--fill-0, #054742)"/>
<path d="M0.0817181 4.5266C0.639379 5.2843 1.46148 5.84471 2.3699 6.08723C2.75766 5.3213 3.14954 4.54989 3.6798 3.8744C4.21143 3.20027 4.89788 2.62069 5.71588 2.36035C5.78164 2.00548 5.64051 1.6369 5.41991 1.35191C5.19794 1.06691 4.90337 0.850422 4.61152 0.636675C4.23473 0.36264 3.82367 0.0762741 3.35781 0.0803847C2.86044 0.0858654 2.43157 0.422927 2.0904 0.786024C1.16964 1.7657 0.206403 3.18794 0.0803466 4.5266" stroke="var(--stroke-0, #054742)" stroke-width="0.160682" stroke-linecap="round" stroke-linejoin="round"/>
</g>
<g id="Vector_3">
<path d="M3.30767 2.52333C3.18983 2.83984 3.07063 3.16046 3.05144 3.49752C3.03226 3.83459 3.12953 4.19357 3.38302 4.41691C3.56936 4.57996 3.81737 4.65395 4.06126 4.69506C4.3901 4.74986 4.73675 4.75534 5.04504 4.63066C5.57256 4.41965 5.90963 3.82362 5.83975 3.25911C5.76987 2.6946 5.31497 2.20545 4.76279 2.07254C4.21061 1.93963 3.5954 2.15886 3.23093 2.59458" fill="var(--fill-0, #054742)"/>
<path d="M3.30767 2.52333C3.18983 2.83984 3.07063 3.16046 3.05144 3.49752C3.03226 3.83459 3.12953 4.19357 3.38302 4.41691C3.56936 4.57996 3.81737 4.65395 4.06126 4.69506C4.3901 4.74986 4.73675 4.75534 5.04504 4.63066C5.57256 4.41965 5.90963 3.82362 5.83975 3.25911C5.76987 2.6946 5.31497 2.20545 4.76279 2.07254C4.21061 1.93963 3.5954 2.15886 3.23093 2.59458" stroke="var(--stroke-0, #054742)" stroke-width="0.160682" stroke-linecap="round" stroke-linejoin="round"/>
</g>
<g id="Vector_4">
<path d="M4.83232 4.27695C4.77203 8.06 5.50781 11.854 6.978 15.3397C7.27533 13.2721 7.02049 11.1689 6.76426 9.09585C6.6478 8.14906 6.52996 7.19679 6.25045 6.28425C5.9723 5.37172 5.52151 4.49207 4.82546 3.83986" fill="var(--fill-0, #054742)"/>
<path d="M4.83232 4.27695C4.77203 8.06 5.50781 11.854 6.978 15.3397C7.27533 13.2721 7.02049 11.1689 6.76426 9.09585C6.6478 8.14906 6.52996 7.19679 6.25045 6.28425C5.9723 5.37172 5.52151 4.49207 4.82546 3.83986" stroke="var(--stroke-0, #054742)" stroke-width="0.160682" stroke-linecap="round" stroke-linejoin="round"/>
</g>
<g id="Vector_5">
<path d="M5.11733 3.32525C5.90381 4.816 6.74646 6.37936 8.13034 7.65226C9.67453 9.07313 11.6174 9.88153 13.4494 10.6201C12.1093 9.07724 11.1077 7.36589 9.60602 5.92447C8.33724 4.70638 6.75194 3.74726 5.22009 3.27044" fill="var(--fill-0, #054742)"/>
<path d="M5.11733 3.32525C5.90381 4.816 6.74646 6.37936 8.13034 7.65226C9.67453 9.07313 11.6174 9.88153 13.4494 10.6201C12.1093 9.07724 11.1077 7.36589 9.60602 5.92447C8.33724 4.70638 6.75194 3.74726 5.22009 3.27044" stroke="var(--stroke-0, #054742)" stroke-width="0.160682" stroke-linecap="round" stroke-linejoin="round"/>
</g>
<path id="Vector_6" d="M5.44218 2.4632C4.01446 1.31362 2.37847 2.97291 3.38418 4.41844" stroke="var(--stroke-0, white)" stroke-width="0.160682" stroke-linecap="round" stroke-linejoin="round"/>
<path id="Vector_7" d="M4.82839 4.69887C5.52033 4.51526 5.86699 4.11243 5.87658 3.5027" stroke="var(--stroke-0, white)" stroke-width="0.160682" stroke-linecap="round" stroke-linejoin="round"/>
<path id="Vector_8" d="M5.13286 4.59535C5.64394 5.84632 5.90701 7.13428 5.92346 8.45924" stroke="var(--stroke-0, white)" stroke-width="0.160682" stroke-linecap="round" stroke-linejoin="round"/>
<path id="Vector_9" d="M5.78347 3.9756C7.47701 4.98405 9.00338 6.29668 10.3708 7.89979" stroke="var(--stroke-0, white)" stroke-width="0.160682" stroke-linecap="round" stroke-linejoin="round"/>
</g>
</g>
</svg>
