<svg preserveAspectRatio="none" width="100%" height="100%" overflow="visible" style="display: block;" viewBox="0 0 16.0643 21.1012" fill="none" xmlns="http://www.w3.org/2000/svg">
<g id="Group">
<path id="Vector" d="M14.1847 12.4598C14.5136 10.7156 14.826 8.96584 15.1178 7.20791C15.3891 5.58014 16.1797 2.97133 15.1028 1.46962C14.6438 0.831118 13.997 0.485832 13.3544 0.302228C13.2201 0.263863 13.0859 0.232355 12.9516 0.204951C12.1432 0.0446409 11.3238 0.0734173 10.5127 0.104931C10.2455 0.114522 9.94678 0.143288 9.77825 0.404991C9.04658 1.54087 9.49189 4.38673 9.48641 5.8076C9.47955 7.57512 9.4686 9.34128 9.46175 11.1088C8.59306 11.7802 7.84084 12.6393 7.08725 13.4586C7.03792 13.5121 6.98995 13.5642 6.94063 13.6176C5.51565 15.1549 4.25098 16.5552 2.30671 17.4226C1.9121 17.598 1.50514 17.7528 1.15027 18.0035C0.222662 18.6598 0.241845 19.7327 1.47637 19.8642C3.67276 20.0971 5.92944 19.6806 7.92168 18.6941C8.93012 18.1953 9.5837 17.9021 10.7305 17.8596C11.8746 17.8158 13.0393 17.935 14.1614 17.6322C14.4958 17.5418 14.8342 17.4061 15.0699 17.143C15.7371 16.4018 15.3604 14.9782 14.9945 14.1766C14.7314 13.5984 14.4327 13.0435 14.1861 12.4612L14.1847 12.4598Z" fill="var(--fill-0, white)" stroke="var(--stroke-0, #054742)" stroke-width="0.160682" stroke-linecap="round" stroke-linejoin="round"/>
<path id="Vector_2" d="M2.92672 19.9201C2.73627 19.9242 2.57186 19.7817 2.54034 19.5789C2.49787 19.3076 2.45675 19.0363 2.42935 18.7637C2.38414 18.317 2.36359 17.8662 2.354 17.4182C2.35126 17.2592 2.4362 17.114 2.56911 17.0427C3.75157 16.4097 4.68192 15.5534 5.56843 14.5819C5.72326 14.412 5.98086 14.4202 6.1261 14.6011C6.71801 15.3369 7.26608 16.1055 7.66617 16.9701C7.83333 17.3291 7.9676 17.6991 8.08955 18.0745C8.15258 18.2677 8.07174 18.4814 7.90184 18.5732C7.90184 18.5732 7.89909 18.5732 7.89909 18.5746C6.3508 19.4172 4.64356 19.8776 2.9281 19.9201H2.92672Z" fill="var(--fill-0, #82B0AB)" stroke="var(--stroke-0, #054742)" stroke-width="0.160682" stroke-linecap="round" stroke-linejoin="round"/>
<path id="Vector_3" d="M15.7076 17.9846H10.927V20.9525H15.7076V17.9846Z" fill="var(--fill-0, #054742)" stroke="var(--stroke-0, #054742)" stroke-width="0.160682" stroke-linecap="round" stroke-linejoin="round"/>
<path id="Vector_4" d="M2.51159 21.0209C3.28162 21.0209 4.05988 20.9811 4.83951 20.8482C5.73697 20.6948 6.49057 20.3481 7.21813 20.0124C7.62507 19.8261 8.00872 19.6479 8.41978 19.5013C8.72533 19.3931 9.03361 19.2985 9.36109 19.1985C10.6641 18.8025 12.1658 18.7395 13.6196 18.6792C14.1923 18.6559 14.7842 18.6313 15.3529 18.5861C15.731 18.5559 16.0119 18.223 15.9818 17.842C15.9516 17.4611 15.62 17.1775 15.2446 17.2063C14.702 17.2501 14.1485 17.2721 13.562 17.2967C12.0247 17.3597 10.4353 17.4269 8.96785 17.8722C8.63763 17.9722 8.29919 18.075 7.96213 18.1956C7.4949 18.3627 7.06604 18.5614 6.65088 18.7518C5.97264 19.0642 5.33277 19.3588 4.61069 19.4821C3.36657 19.6945 2.05942 19.6397 0.793381 19.5876C0.415213 19.5712 0.095969 19.8685 0.080897 20.2508C0.0658251 20.6331 0.359031 20.9564 0.737199 20.9715C1.32089 20.9962 1.91419 21.0209 2.51159 21.0209Z" fill="var(--fill-0, #054742)" stroke="var(--stroke-0, #054742)" stroke-width="0.160682" stroke-linecap="round" stroke-linejoin="round"/>
</g>
</svg>
