<svg preserveAspectRatio="none" width="100%" height="100%" overflow="visible" style="display: block;" viewBox="0 0 15 16.6667" fill="none" xmlns="http://www.w3.org/2000/svg">
<path id="Vector" d="M13.3333 1.66667H12.5V0H10.8333V1.66667H4.16667V0H2.5V1.66667H1.66667C0.741667 1.66667 0.00833333 2.41667 0.00833333 3.33333L0 15C0 15.9167 0.741667 16.6667 1.66667 16.6667H13.3333C14.25 16.6667 15 15.9167 15 15V3.33333C15 2.41667 14.25 1.66667 13.3333 1.66667ZM13.3333 15H1.66667V6.66667H13.3333V15ZM13.3333 5H1.66667V3.33333H13.3333V5ZM5 10H3.33333V8.33333H5V10ZM8.33333 10H6.66667V8.33333H8.33333V10ZM11.6667 10H10V8.33333H11.6667V10ZM5 13.3333H3.33333V11.6667H5V13.3333ZM8.33333 13.3333H6.66667V11.6667H8.33333V13.3333ZM11.6667 13.3333H10V11.6667H11.6667V13.3333Z" fill="var(--fill-0, #7E7E7E)"/>
</svg>
