<svg preserveAspectRatio="none" width="100%" height="100%" overflow="visible" style="display: block;" viewBox="0 0 32.3662 14.0724" fill="none" xmlns="http://www.w3.org/2000/svg">
<g id="Group">
<g id="Group_2">
<path id="Vector" d="M1.25762 2.57099C1.25762 2.57099 0.218675 2.53348 0.0985326 1.90699C-0.0393362 1.18247 0.652963 0.630986 0.652963 0.630986H1.57274C1.57274 0.630986 1.17292 1.08274 1.20444 1.28902L1.66532 0.770774L1.9184 0.823623C1.9184 0.823623 0.858778 1.64105 1.26549 2.27948L1.25663 2.57099H1.25762Z" fill="var(--fill-0, #DBECE4)" stroke="var(--stroke-0, #054742)" stroke-width="0.160682" stroke-linecap="round" stroke-linejoin="round"/>
<path id="Vector_2" d="M1.29424 2.62803C1.36138 2.63283 12.2049 2.62871 14.4849 2.62803C14.7165 2.62803 14.9028 2.53401 14.9028 2.41803C14.9028 2.30205 14.7151 2.20803 14.4835 2.20803H1.29424V2.62803Z" fill="var(--fill-0, #054742)" stroke="var(--stroke-0, #054742)" stroke-width="0.160682" stroke-linecap="round" stroke-linejoin="round"/>
<path id="Vector_3" d="M16.792 3.87299L12.4842 3.35506L10.0946 0.991513L9.55199 0.798318C9.39031 0.74077 9.2163 0.721587 9.04503 0.74214L8.80114 0.772284L8.40515 0.569497C8.23114 0.480435 8.02288 0.490026 7.85846 0.594159L7.82557 0.614715L7.0843 0.258469L6.36222 0.0803433L4.52107 2.10261C5.20899 2.12842 5.88703 1.93285 6.45553 1.54465L6.63351 1.42312L7.4241 2.26715C7.56934 2.42197 7.45837 2.67682 7.24599 2.67545L5.13043 2.66449C5.13043 2.66449 3.95621 2.78644 4.07952 3.69624C4.07952 3.69624 7.02538 3.65924 7.18158 3.81544C7.33778 3.97164 8.78881 5.54049 9.29988 5.50213C9.81096 5.46376 15.6534 7.54095 15.6534 7.54095L16.792 3.87436V3.87299Z" fill="var(--fill-0, white)" stroke="var(--stroke-0, #054742)" stroke-width="0.160682" stroke-linecap="round" stroke-linejoin="round"/>
<path id="Vector_4" d="M13.831 2.91286C13.831 2.91286 11.9018 5.1024 12.4882 7.53446L15.7602 8.96082C15.7602 8.96082 22.052 12.8192 24.4005 13.1549C26.749 13.4906 29.4962 13.9921 29.4962 13.9921L32.2859 2.91286L25.8268 4.43101C25.8268 4.43101 25.324 3.42394 24.3169 3.59247C23.3098 3.75963 21.7999 3.92816 21.7999 3.92816L13.831 2.91286Z" fill="var(--fill-0, #82B0AB)" stroke="var(--stroke-0, #054742)" stroke-width="0.160682" stroke-linecap="round" stroke-linejoin="round"/>
<path id="Vector_5" d="M7.82746 0.614524L9.06336 1.36675" stroke="var(--stroke-0, #054742)" stroke-width="0.160682" stroke-linecap="round" stroke-linejoin="round"/>
<path id="Vector_6" d="M8.80303 0.771994L9.75941 1.18305" stroke="var(--stroke-0, #054742)" stroke-width="0.160682" stroke-linecap="round" stroke-linejoin="round"/>
<path id="Vector_7" d="M1.21645 2.24501C0.750647 2.08732 0.594068 1.8299 0.797916 1.45656" stroke="var(--stroke-0, #054742)" stroke-width="0.160682" stroke-linecap="round" stroke-linejoin="round"/>
<path id="Vector_8" d="M1.21641 2.30949C0.60782 2.27284 0.0346809 1.89694 0.534948 1.23635" stroke="var(--stroke-0, #054742)" stroke-width="0.160682" stroke-linecap="round" stroke-linejoin="round"/>
</g>
<g id="Vector_9">
<path d="M15.8914 3.36452C14.6897 4.74429 14.3842 6.32958 14.5513 8.02312Z" fill="var(--fill-0, #82B0AB)"/>
<path d="M15.8914 3.36452C14.6897 4.74429 14.3842 6.32958 14.5513 8.02312" stroke="var(--stroke-0, #054742)" stroke-width="0.160682" stroke-linecap="round" stroke-linejoin="round"/>
</g>
</g>
</svg>
